{"glyphs":{":":{"x_min":0,"x_max":119,"ha":119,"o":"m 197 302 q 184 302 177 310 q 170 318 170 329 q 170 338 174 348 q 179 358 186 366 q 194 374 204 379 q 214 384 224 384 q 237 384 244 376 q 250 368 250 357 q 250 348 246 338 q 241 328 234 320 q 226 312 216 307 q 207 302 197 302 z m 41 0 q 28 0 21 8 q 14 16 14 27 q 14 36 18 46 q 23 56 30 64 q 38 72 48 77 q 58 82 68 82 q 81 82 88 74 q 94 66 94 55 q 94 46 90 36 q 85 26 78 18 q 70 10 60 5 q 51 0 41 0 z"},"$":{"x_min":0,"x_max":406,"ha":406,"o":"m 151 2 q 117 7 96 27 q 76 47 76 82 q 76 96 78 108 q 81 121 86 133 q 90 144 98 162 q 107 180 119 196 q 131 213 146 225 q 161 237 177 237 q 183 237 187 236 q 193 232 193 226 l 193 224 q 193 223 192 222 q 192 222 192 221 q 191 219 190 217 q 190 215 188 213 q 186 208 183 202 q 180 195 177 188 q 170 174 165 162 q 160 150 158 146 q 153 131 149 116 q 145 100 145 85 q 145 70 150 58 q 155 45 169 40 q 179 62 190 84 q 200 105 211 127 q 231 169 252 209 q 272 249 292 290 q 294 292 296 296 q 297 299 299 302 q 303 310 304 313 q 298 328 292 342 q 286 356 281 370 q 276 384 274 400 q 271 415 271 432 q 271 472 288 513 q 304 554 332 587 q 361 620 400 642 q 438 663 482 666 q 484 669 486 672 q 487 676 489 680 q 491 684 493 688 q 495 692 497 695 q 503 709 519 709 q 534 709 534 695 q 534 691 532 686 q 531 681 529 676 q 528 669 524 662 q 553 655 569 635 q 585 615 585 586 q 585 561 575 533 q 571 522 562 504 q 553 486 541 469 q 529 452 514 440 q 499 428 483 428 q 481 428 478 428 q 476 428 473 430 q 467 432 467 439 l 467 442 q 467 442 468 444 q 469 446 470 448 q 470 450 472 453 q 474 458 477 464 q 480 470 483 477 q 490 491 496 504 q 501 516 502 520 q 508 535 512 550 q 516 566 516 582 q 516 604 505 618 q 476 551 444 486 q 411 420 380 354 q 386 340 391 326 q 396 313 401 299 q 405 285 408 271 q 410 257 410 240 q 410 199 393 158 q 376 117 347 84 q 318 51 280 28 q 241 6 198 1 q 194 -7 188 -16 q 183 -22 180 -28 q 176 -33 174 -35 q 170 -40 164 -46 q 158 -51 149 -51 q 136 -51 136 -38 q 136 -33 138 -26 q 141 -20 143 -15 q 147 -7 149 -4 q 151 0 151 2 z m 359 424 q 379 466 400 508 q 422 549 443 591 q 445 595 448 601 q 452 607 456 614 q 458 619 460 622 q 462 626 464 630 q 439 626 419 605 q 399 584 386 556 q 372 529 364 500 q 357 470 357 448 q 357 442 358 436 q 358 430 359 424 z m 220 42 q 244 52 264 72 q 283 93 296 118 q 310 144 318 172 q 325 199 325 223 q 325 228 324 232 q 324 236 324 241 q 306 205 288 170 q 269 134 251 99 q 243 85 236 70 q 228 56 220 42 z"},"?":{"x_min":0,"x_max":330,"ha":330,"o":"m 140 108 q 140 116 152 133 q 163 150 177 167 q 191 184 205 200 q 219 215 224 221 q 254 255 285 291 q 316 327 344 365 q 372 403 396 444 q 419 484 435 526 q 441 542 446 560 q 451 579 451 596 q 451 610 445 620 q 439 631 424 631 q 406 631 391 619 q 376 607 364 590 q 351 572 342 553 q 332 534 327 520 q 321 504 316 488 q 312 472 308 455 q 308 451 307 449 q 307 445 305 441 q 298 428 281 428 q 262 428 257 443 q 252 458 252 470 q 252 486 256 504 q 260 521 266 537 q 275 562 291 586 q 307 609 328 626 q 350 644 376 654 q 403 665 433 665 q 476 665 499 642 q 522 620 522 579 q 522 561 518 544 q 514 526 508 509 q 491 464 461 420 q 431 376 394 334 q 358 293 319 255 q 280 217 245 184 q 236 176 226 167 q 217 158 207 149 q 198 140 190 131 q 182 122 176 111 q 172 105 168 100 q 163 96 153 96 q 140 96 140 108 z m 87 27 q 87 36 92 46 q 96 56 104 64 q 111 72 121 77 q 131 82 141 82 q 154 82 160 74 q 167 66 167 55 q 167 36 150 18 q 134 0 113 0 q 101 0 94 8 q 87 16 87 27 z"},"<":{"x_min":0,"x_max":272,"ha":272,"o":"m 183 273 q 194 268 211 258 q 228 249 245 237 q 263 225 278 211 q 293 197 293 184 q 293 171 283 165 q 273 159 262 159 q 243 159 224 170 q 205 180 191 190 q 183 195 170 204 q 158 213 145 224 q 132 235 122 246 q 112 257 112 267 q 112 275 116 279 q 119 284 126 288 q 132 291 140 294 q 147 297 154 300 q 161 302 166 304 q 180 309 202 316 q 224 324 247 332 q 270 339 292 344 q 314 349 329 349 q 331 349 341 347 q 343 346 347 344 q 351 342 351 337 q 351 331 343 327 q 335 321 326 317 q 315 312 302 308 q 289 304 274 299 q 247 290 220 283 q 194 276 183 273 z"},"'":{"x_min":0,"x_max":137,"ha":137,"o":"m 159 323 q 157 329 157 331 q 157 339 164 358 q 172 377 184 401 q 195 425 209 452 q 223 478 236 502 q 250 525 262 543 q 273 561 279 568 q 282 572 288 576 q 293 581 301 581 q 309 581 312 576 q 315 570 315 565 q 315 551 302 522 q 290 493 273 462 q 256 430 239 402 q 222 373 213 360 q 211 355 206 348 q 201 342 196 335 q 191 328 184 322 q 178 317 170 317 l 167 317 q 164 317 162 319 q 160 321 159 323 z"},"=":{"x_min":0,"x_max":351,"ha":351,"o":"m 183 261 q 177 263 172 266 q 166 270 166 277 q 166 285 173 290 q 180 296 189 300 q 199 304 211 306 q 223 307 237 309 q 263 311 288 311 q 313 311 323 311 q 328 311 340 311 q 353 311 365 309 q 379 307 387 302 q 399 297 399 287 q 399 273 385 266 q 371 258 356 255 q 339 252 323 252 q 307 251 298 251 q 275 251 252 252 q 228 254 204 256 q 202 257 200 257 q 197 257 195 258 q 187 258 183 261 z m 155 185 q 149 187 144 190 q 138 194 138 201 q 138 210 145 216 q 152 221 161 224 q 180 231 209 233 q 235 236 260 236 q 285 236 295 236 q 301 236 313 236 q 325 235 337 233 q 350 231 360 227 q 371 221 371 212 q 371 197 357 190 q 343 183 328 180 q 311 176 295 176 q 279 175 271 175 q 223 175 177 181 q 171 181 167 182 q 164 183 161 183 q 158 183 155 185 z"},"a":{"x_min":0,"x_max":312,"ha":312,"o":"m 192 74 q 182 61 170 48 q 157 34 143 24 q 129 13 112 6 q 96 0 78 0 q 46 0 34 20 q 21 40 21 66 q 21 91 31 124 q 41 156 58 190 q 75 225 98 258 q 122 291 149 317 q 176 343 205 359 q 234 375 263 375 q 289 375 302 362 q 315 349 317 327 q 321 332 326 338 q 330 345 335 351 q 343 360 352 368 q 362 375 371 375 q 379 375 382 370 q 385 365 385 360 q 385 353 380 338 q 374 322 364 302 q 355 282 342 258 q 330 233 317 208 q 304 182 291 157 q 278 132 267 109 q 256 86 248 68 q 239 50 235 39 q 234 39 234 38 l 234 36 q 236 38 238 40 q 240 41 242 43 q 248 48 254 55 q 261 62 268 70 q 282 85 294 99 q 306 113 309 117 q 326 137 341 158 q 356 178 371 198 q 378 208 384 218 q 390 228 398 237 q 405 246 415 246 q 427 246 427 234 q 427 231 426 229 q 425 227 424 225 q 417 215 402 194 q 388 173 370 148 q 351 123 330 96 q 308 70 288 48 q 267 27 248 14 q 229 0 216 0 q 198 0 192 12 q 187 23 187 36 q 187 52 192 74 z m 84 53 q 84 44 87 38 q 90 31 98 31 q 110 31 126 44 q 143 58 161 80 q 179 101 197 128 q 215 154 230 179 q 246 204 257 226 q 268 247 273 259 q 278 271 281 286 q 284 300 284 313 q 284 325 280 334 q 276 344 264 344 q 241 344 216 316 q 190 289 166 252 q 143 214 125 176 q 107 139 100 119 q 95 105 90 86 q 84 68 84 53 z"},"L":{"x_min":0,"x_max":786,"ha":786,"o":"m 351 -112 q 330 -137 306 -160 q 281 -184 252 -202 q 224 -221 192 -232 q 160 -243 124 -243 q 96 -243 70 -236 q 45 -229 26 -214 q 6 -199 -6 -177 q -17 -155 -17 -125 q -17 -93 -4 -59 q 8 -25 30 6 q 52 36 82 60 q 111 83 146 96 q 182 110 221 110 q 271 110 308 87 q 345 64 371 26 q 380 43 390 60 q 399 76 408 93 q 430 134 450 174 q 471 214 492 256 l 507 287 q 543 359 580 430 q 616 500 661 568 q 675 588 689 608 q 703 628 720 646 q 726 652 732 658 q 738 664 744 669 q 745 671 746 672 q 747 672 748 673 q 749 673 749 674 q 690 669 622 657 q 555 645 489 624 q 423 602 364 571 q 306 540 266 498 q 232 462 212 414 q 202 386 202 359 q 202 335 214 318 q 225 301 251 301 q 272 301 288 314 q 305 326 318 344 q 330 362 339 383 q 348 404 354 422 q 364 450 369 481 q 370 481 370 482 l 370 483 l 370 484 q 370 492 378 498 q 387 504 394 504 q 414 504 420 488 q 425 472 425 459 q 425 424 410 390 q 396 355 370 328 q 345 300 311 282 q 277 265 239 265 q 194 265 168 290 q 141 315 141 360 q 141 376 144 392 q 148 408 153 423 q 165 453 182 478 q 199 504 223 527 q 257 560 302 587 q 348 614 400 634 q 453 655 510 670 q 568 685 625 694 q 682 704 736 708 q 791 713 838 713 q 851 713 851 700 q 851 692 844 684 q 838 677 828 677 q 808 677 783 649 q 758 621 733 581 q 721 562 710 542 q 699 523 690 506 q 681 488 674 474 q 667 459 663 451 q 649 422 635 393 q 621 364 607 335 q 575 269 543 204 q 511 140 476 77 q 465 56 453 36 q 441 15 428 -5 q 423 -13 418 -22 q 412 -30 407 -38 q 412 -49 416 -61 q 421 -73 426 -84 q 430 -93 434 -104 q 438 -114 443 -125 q 448 -136 454 -146 q 459 -157 465 -166 q 479 -186 496 -198 q 513 -210 537 -210 q 570 -210 602 -188 q 633 -166 658 -134 q 682 -102 697 -66 q 712 -29 712 0 q 712 48 660 48 q 655 48 650 51 q 645 54 645 61 q 645 70 653 77 q 661 84 670 84 q 692 84 711 79 q 730 74 744 64 q 758 53 766 36 q 775 19 775 -4 q 775 -46 752 -89 q 728 -132 690 -166 q 653 -201 608 -222 q 562 -244 518 -244 q 485 -244 460 -232 q 434 -221 414 -202 q 394 -184 379 -160 q 364 -137 351 -112 z m 322 -54 q 317 -45 312 -36 q 308 -26 302 -15 q 296 -4 290 6 q 284 17 276 27 q 260 47 242 60 q 223 73 200 73 q 168 73 140 52 q 113 32 92 2 q 72 -28 60 -62 q 48 -97 48 -124 q 48 -162 69 -184 q 90 -207 130 -207 q 160 -207 188 -192 q 216 -177 241 -154 q 266 -131 287 -104 q 308 -78 322 -54 z"},"3":{"x_min":0,"x_max":438,"ha":438,"o":"m 354 632 q 342 632 342 643 q 342 651 348 657 q 355 663 363 663 l 636 663 q 648 663 648 651 q 648 642 639 635 l 430 479 q 468 459 484 421 q 500 383 500 343 q 500 283 474 222 q 449 160 405 110 q 361 61 302 30 q 243 -1 177 -1 q 154 -1 132 4 q 111 8 94 19 q 78 30 68 48 q 57 65 57 91 q 57 105 60 119 q 63 133 68 147 q 79 177 98 203 q 118 229 144 248 q 169 267 200 278 q 230 289 264 289 q 278 289 278 275 q 278 266 270 260 q 262 253 254 253 q 226 253 202 236 q 177 219 159 194 q 141 169 130 140 q 120 111 120 87 q 120 58 136 44 q 153 30 183 30 q 218 30 250 48 q 282 65 310 94 q 337 122 360 159 q 383 196 399 234 q 415 273 424 310 q 432 348 432 379 q 432 399 426 420 q 421 442 404 453 q 402 455 398 457 q 396 458 394 458 q 393 458 391 459 q 383 463 378 468 q 373 474 373 484 q 373 492 378 499 q 383 506 389 511 l 549 632 z"},";":{"x_min":0,"x_max":133,"ha":133,"o":"m 213 302 q 200 302 194 310 q 187 318 187 329 q 187 338 192 348 q 196 358 204 366 q 211 374 220 379 q 230 384 240 384 q 253 384 260 376 q 267 368 267 357 q 267 348 262 338 q 258 328 250 320 q 243 312 233 307 q 223 302 213 302 z m -39 -150 q -41 -146 -41 -143 q -41 -135 -34 -116 q -26 -97 -14 -72 q -3 -48 11 -22 q 25 5 38 28 q 52 52 64 70 q 75 87 81 94 q 84 98 90 103 q 95 108 103 108 q 111 108 114 102 q 117 96 117 91 q 117 82 108 60 q 100 38 86 10 q 73 -17 56 -46 q 40 -76 24 -100 q 8 -125 -6 -140 q -20 -156 -28 -156 l -31 -156 q -34 -156 -36 -154 q -38 -152 -39 -150 z"},"J":{"x_min":0,"x_max":543,"ha":543,"o":"m 370 484 q 370 492 378 498 q 387 504 394 504 q 414 504 420 488 q 426 472 426 459 q 426 424 411 390 q 396 355 370 328 q 345 300 311 282 q 277 265 239 265 q 193 265 167 290 q 141 316 141 360 q 141 376 144 392 q 148 409 153 423 q 165 453 182 479 q 199 505 223 528 q 257 561 302 588 q 348 615 400 636 q 453 656 510 670 q 568 685 625 694 q 682 704 736 708 q 791 713 838 713 q 851 713 851 700 q 851 692 844 684 q 838 677 828 677 q 808 677 783 649 q 758 621 733 581 q 721 562 710 542 q 699 523 690 506 q 681 488 674 474 q 667 459 663 451 q 649 422 635 393 q 621 364 607 335 q 584 286 560 238 q 537 189 511 140 q 485 92 458 45 q 431 -2 400 -47 q 376 -81 347 -116 q 318 -151 284 -179 q 249 -207 208 -225 q 167 -243 120 -243 q 58 -243 23 -210 q -12 -178 -12 -118 q -12 -72 8 -24 q 29 23 64 61 q 99 99 144 123 q 190 147 241 147 q 261 147 281 142 q 301 138 316 128 q 332 118 342 102 q 351 85 351 62 q 351 50 348 38 q 346 27 342 16 q 338 6 330 -10 q 321 -26 310 -41 q 298 -56 284 -66 q 270 -77 255 -77 q 248 -77 244 -72 q 241 -68 241 -63 q 241 -59 243 -55 q 244 -54 246 -50 q 258 -26 270 6 q 283 37 283 63 q 283 113 231 113 q 193 113 160 89 q 128 65 104 30 q 80 -6 66 -46 q 53 -87 53 -120 q 53 -158 70 -182 q 88 -207 130 -207 q 160 -207 188 -193 q 215 -179 238 -158 q 262 -136 282 -110 q 301 -85 317 -62 q 345 -20 370 22 q 395 65 418 109 q 441 154 462 198 q 484 242 507 287 q 543 359 580 430 q 616 500 661 568 q 675 588 689 608 q 703 628 720 646 q 726 652 732 658 q 738 664 744 669 l 748 673 q 749 673 749 674 q 690 669 622 656 q 555 644 489 622 q 423 601 364 570 q 306 539 266 498 q 232 462 212 414 q 202 386 202 359 q 202 335 214 318 q 225 301 251 301 q 272 301 288 314 q 305 326 318 344 q 330 362 339 383 q 348 404 354 422 q 359 436 363 451 q 367 466 370 481 l 370 482 l 370 483 z"},"V":{"x_min":0,"x_max":832,"ha":832,"o":"m 243 -165 q 243 -140 250 -114 q 258 -87 266 -64 q 293 10 330 81 q 368 152 405 221 q 424 256 449 302 q 474 348 497 398 q 520 448 536 496 q 551 543 551 582 q 551 623 532 649 q 513 675 468 675 q 435 675 404 660 q 372 646 344 622 q 316 598 292 566 q 269 535 252 502 q 235 468 226 434 q 216 400 216 371 q 216 343 228 324 q 241 304 272 304 q 291 304 308 315 q 325 326 339 342 q 353 358 363 377 q 373 396 379 413 q 385 430 390 446 q 394 463 398 480 q 398 482 398 484 q 399 485 399 487 q 400 489 400 490 q 400 492 402 494 q 405 502 411 504 q 417 507 425 507 q 435 507 440 502 q 446 498 449 492 q 452 486 453 479 q 454 472 454 466 q 454 449 450 432 q 446 414 441 399 q 431 371 413 348 q 395 324 372 306 q 348 289 320 279 q 291 269 260 269 q 208 269 180 296 q 151 324 151 375 q 151 398 156 420 q 161 442 169 463 q 186 509 217 554 q 248 599 289 634 q 330 670 380 692 q 430 713 485 713 q 554 713 588 676 q 621 639 621 575 q 621 540 611 500 q 601 460 584 416 q 568 373 546 328 q 524 283 500 237 q 475 191 450 146 q 425 101 402 58 q 379 14 360 -26 q 341 -65 328 -100 q 322 -116 317 -134 q 312 -151 312 -168 q 312 -207 354 -207 q 380 -207 408 -194 q 437 -181 466 -160 q 494 -139 521 -112 q 548 -86 572 -58 q 597 -31 617 -5 q 637 21 652 41 q 724 141 786 254 q 849 366 891 481 q 896 494 902 511 q 907 528 912 546 q 917 564 920 581 q 924 598 924 611 q 924 613 924 617 q 924 621 922 624 q 920 630 916 630 q 911 630 906 633 q 902 636 902 642 q 902 650 910 658 q 917 665 926 665 q 944 665 956 658 q 967 651 974 640 q 980 629 982 616 q 984 602 984 589 q 984 550 972 504 q 960 457 946 421 q 926 366 900 314 q 874 261 844 210 q 821 172 789 124 q 757 75 718 25 q 678 -25 632 -73 q 587 -121 538 -158 q 488 -196 436 -219 q 384 -242 332 -242 q 291 -242 267 -224 q 243 -207 243 -165 z"},"\"":{"x_min":0,"x_max":245,"ha":245,"o":"m 248 323 q 246 329 246 331 q 246 339 254 358 q 261 377 272 401 q 284 425 298 452 q 312 478 326 502 q 339 525 350 543 q 362 561 368 568 q 371 572 376 576 q 382 581 390 581 q 398 581 401 576 q 404 570 404 565 q 404 556 396 534 q 387 512 374 484 q 360 457 344 428 q 327 398 311 374 q 295 349 281 333 q 267 317 259 317 l 256 317 q 253 317 251 319 q 249 321 248 323 z m 177 323 q 175 326 175 331 q 175 339 182 358 q 190 377 201 401 q 212 425 226 452 q 241 478 254 502 q 267 525 278 543 q 290 561 296 568 q 300 572 306 576 q 311 581 319 581 q 327 581 330 576 q 333 570 333 565 q 333 551 320 522 q 307 493 290 462 q 273 430 256 402 q 239 373 231 360 q 228 355 224 348 q 219 342 214 335 q 209 328 202 322 q 195 317 187 317 l 185 317 q 181 317 180 319 q 178 321 177 323 z"},"7":{"x_min":0,"x_max":336,"ha":336,"o":"m 270 634 q 265 634 262 636 q 258 639 258 645 q 258 653 264 659 q 271 665 279 665 l 569 665 q 580 665 580 655 q 580 650 576 642 q 569 633 562 624 q 554 614 547 605 l 493 537 q 451 484 410 432 q 368 380 326 327 q 281 271 237 216 q 193 162 146 108 q 131 90 115 71 q 99 52 82 35 q 80 33 78 31 q 76 29 74 26 q 71 24 68 21 q 65 18 62 16 q 56 11 50 6 q 43 2 36 2 q 22 2 22 15 q 22 20 24 24 q 31 41 42 60 q 53 78 67 98 q 80 117 93 135 q 106 153 117 167 q 186 261 258 350 q 329 440 405 528 q 421 547 437 565 q 453 583 470 600 q 477 608 488 618 l 503 633 z"},"S":{"x_min":0,"x_max":674,"ha":674,"o":"m 528 246 q 484 234 438 228 q 392 221 346 221 q 314 221 278 226 q 241 232 210 246 q 180 261 160 286 q 139 312 139 353 q 139 370 143 387 q 147 404 153 421 q 165 455 188 488 q 212 522 243 548 q 274 574 311 590 q 348 606 389 606 q 427 606 455 588 q 483 569 483 527 q 483 513 480 500 q 477 487 472 474 q 468 463 460 445 q 451 427 439 410 q 427 393 412 380 q 397 368 381 368 q 377 368 371 370 q 364 372 364 380 q 364 382 365 385 q 366 388 367 390 q 371 396 372 398 q 380 415 388 431 q 395 447 401 464 q 407 479 411 496 q 415 513 415 529 q 415 549 406 560 q 398 571 377 571 q 345 571 314 548 q 284 526 260 493 q 236 460 222 423 q 207 386 207 358 q 207 326 222 306 q 236 287 260 276 q 283 264 312 260 q 340 256 368 256 q 409 256 450 262 q 490 267 529 278 q 529 304 528 329 q 527 354 527 379 q 527 416 531 452 q 535 488 548 523 q 560 555 582 589 q 605 623 635 650 q 665 678 702 696 q 738 713 777 713 q 805 713 826 702 q 846 692 860 674 q 873 657 879 634 q 885 612 885 588 q 885 565 880 544 q 876 522 868 501 q 852 458 826 423 q 799 388 766 360 q 732 332 692 310 q 653 288 611 272 q 611 271 610 271 l 610 253 q 609 242 609 230 q 609 219 607 208 q 604 166 596 125 q 588 84 573 45 q 550 -19 512 -71 q 485 -107 450 -138 q 416 -168 376 -190 q 336 -212 291 -224 q 246 -237 199 -237 q 164 -237 128 -228 q 93 -220 65 -202 q 37 -184 20 -156 q 2 -127 2 -87 q 2 -45 21 -2 q 40 40 72 74 q 103 109 144 131 q 186 153 231 153 q 247 153 264 149 q 282 145 297 136 q 312 128 322 114 q 331 101 331 81 q 331 68 324 48 q 317 29 306 11 q 294 -7 278 -20 q 263 -33 246 -33 q 241 -33 235 -30 q 229 -28 229 -20 q 229 -15 233 -7 q 244 12 254 36 q 264 59 264 80 q 264 116 223 116 q 189 116 160 95 q 131 74 110 42 q 88 11 76 -25 q 64 -61 64 -91 q 64 -120 75 -140 q 86 -161 104 -174 q 123 -188 148 -194 q 172 -201 199 -201 q 254 -201 301 -179 q 348 -157 386 -122 q 423 -86 451 -41 q 479 4 496 50 q 510 88 518 127 q 525 166 527 207 q 528 217 528 226 q 528 236 528 246 z m 612 309 q 679 341 726 392 q 773 442 799 511 q 807 534 813 560 q 819 585 819 609 q 819 637 808 657 q 797 677 767 677 q 743 677 722 664 q 702 651 686 631 q 669 611 656 588 q 644 564 637 544 q 628 519 623 493 q 618 467 615 440 q 613 413 612 386 q 612 359 612 333 l 612 317 z"},"Z":{"x_min":0,"x_max":573,"ha":573,"o":"m 424 310 l 427 310 q 462 310 498 336 q 533 361 567 399 q 584 417 600 436 q 615 455 629 474 q 643 493 654 510 q 666 526 675 539 q 693 563 710 588 q 728 612 748 635 q 759 650 775 666 q 777 669 780 671 l 783 674 q 771 673 758 672 q 746 672 734 672 q 688 670 638 667 q 587 664 538 656 q 488 649 440 634 q 393 620 352 596 q 312 573 280 538 q 248 504 229 456 q 224 442 220 426 q 217 409 217 394 q 217 372 226 356 q 236 339 259 339 q 280 339 298 352 q 315 364 329 382 q 343 401 353 422 q 363 443 369 460 q 374 474 378 489 q 382 504 385 518 l 385 520 l 385 521 l 385 522 q 385 530 394 536 q 403 541 409 541 q 430 541 436 526 q 441 510 441 497 q 441 462 426 427 q 411 392 385 364 q 359 337 325 320 q 291 303 253 303 q 208 303 182 328 q 157 352 157 396 q 157 413 160 431 q 164 449 170 466 q 186 508 214 544 q 259 600 326 634 q 393 667 470 685 q 546 703 624 708 q 703 714 770 714 q 796 714 820 714 q 845 713 871 713 q 884 713 884 700 q 884 692 878 684 q 871 677 861 677 q 853 677 846 673 q 839 669 832 663 q 822 655 811 640 q 800 626 789 609 q 778 592 768 576 q 759 560 752 548 q 741 530 729 511 q 717 492 704 472 q 690 452 676 433 q 663 414 647 396 q 617 361 581 332 q 545 303 501 288 l 500 287 q 524 268 533 240 q 542 212 542 185 q 542 154 535 124 q 528 93 517 64 q 495 6 458 -48 q 422 -103 374 -145 q 325 -187 265 -212 q 205 -237 136 -237 q 103 -237 74 -230 q 44 -223 22 -207 q -1 -191 -14 -166 q -27 -141 -27 -106 q -27 -86 -23 -66 q -19 -47 -12 -28 q 1 6 22 40 q 43 75 72 102 q 100 129 136 146 q 172 163 214 163 q 231 163 248 160 q 266 156 280 148 q 295 139 304 126 q 313 112 313 91 q 313 74 306 55 q 302 46 294 32 q 287 19 276 6 q 266 -6 254 -15 q 241 -24 228 -24 q 223 -24 216 -21 q 210 -18 210 -10 l 210 -7 q 210 -6 210 -6 q 211 -5 211 -4 q 212 -2 216 4 q 218 9 221 15 q 224 21 228 28 q 234 42 240 57 q 245 72 245 86 q 245 126 205 126 q 170 126 140 101 q 109 76 86 40 q 64 5 51 -34 q 38 -74 38 -104 q 38 -152 65 -176 q 92 -201 141 -201 q 180 -201 216 -187 q 251 -173 282 -150 q 313 -128 338 -99 q 364 -70 384 -40 q 403 -12 418 18 q 432 47 443 78 q 454 106 462 138 q 469 171 469 200 q 469 213 466 226 q 464 240 458 250 q 452 261 442 268 q 432 274 417 274 q 404 274 404 286 q 404 294 410 300 q 416 307 424 309 z"},"x":{"x_min":0,"x_max":244,"ha":244,"o":"m 190 345 q 179 325 172 305 q 161 278 155 250 q 149 223 142 194 q 151 201 160 208 q 168 214 176 220 q 193 233 212 248 q 231 262 249 278 q 267 294 282 310 q 298 327 309 345 q 313 351 316 358 q 318 364 322 370 q 324 375 329 380 q 334 385 341 385 q 346 385 350 382 q 354 378 354 373 q 354 371 354 370 q 353 369 353 368 q 338 327 314 294 q 289 260 259 231 q 244 216 228 202 q 213 189 196 175 q 179 161 163 149 q 147 137 131 124 q 131 124 130 122 l 130 117 q 129 114 129 110 q 129 106 128 102 q 127 94 127 86 q 127 78 127 76 q 127 71 127 64 q 127 56 129 48 q 134 32 142 32 q 157 32 180 52 q 202 72 226 98 q 249 125 269 152 q 289 178 298 191 q 306 202 314 214 q 321 226 330 237 q 337 246 347 246 q 359 246 359 234 q 359 229 346 208 q 332 188 315 166 q 298 143 282 123 q 267 103 262 98 q 251 85 236 68 q 222 51 204 36 q 187 21 168 10 q 148 0 128 0 q 111 0 100 8 q 88 16 81 28 q 74 39 70 52 q 67 64 66 72 q 46 55 34 40 q 21 26 9 2 q 7 -3 2 -8 q -3 -12 -11 -12 q -23 -12 -23 0 q -23 3 -22 5 q -12 31 3 55 q 18 79 37 100 q 40 104 44 108 q 48 111 52 115 q 63 126 66 130 l 66 131 q 68 139 68 146 q 68 154 69 162 q 77 217 94 264 q 99 277 108 296 q 116 315 128 332 q 141 350 157 362 q 173 375 192 375 q 204 375 204 363 q 204 357 200 352 q 195 348 190 346 z"},")":{"x_min":0,"x_max":275,"ha":275,"o":"m -40 -109 q -40 -101 -34 -96 q -27 -90 -19 -90 q -4 -90 12 -81 q 29 -72 45 -58 q 61 -45 75 -30 q 89 -15 99 -4 q 132 34 162 80 q 193 126 220 175 q 247 224 270 274 q 293 324 310 371 q 316 387 322 407 q 329 427 334 448 q 340 468 344 488 q 347 507 347 524 q 347 531 346 538 q 345 546 342 552 q 337 565 323 565 q 318 565 314 568 q 311 571 311 577 q 311 585 317 590 q 323 596 331 596 q 353 596 366 588 q 380 580 388 567 q 396 554 399 538 q 402 522 402 506 q 402 468 392 424 q 381 380 367 345 q 355 313 333 266 q 311 218 281 166 q 251 115 215 64 q 179 12 139 -29 q 99 -70 56 -96 q 14 -121 -28 -121 q -40 -121 -40 -109 z"},"&":{"x_min":0,"x_max":410,"ha":410,"o":"m 320 107 q 320 94 322 78 q 325 63 330 50 q 336 37 346 28 q 356 19 371 19 q 385 19 385 5 q 385 -3 378 -10 q 370 -17 361 -17 q 340 -17 326 -8 q 313 0 304 14 q 295 27 290 44 q 286 60 284 76 q 267 62 247 48 q 227 34 206 23 q 184 12 160 5 q 137 -2 114 -2 q 88 -2 68 10 q 48 22 48 51 q 48 60 50 68 q 52 77 54 85 q 61 104 76 128 q 92 153 113 180 q 134 208 158 236 q 181 265 204 292 q 228 318 248 340 q 269 363 283 379 q 297 393 310 407 q 324 421 337 436 q 342 455 348 474 q 354 493 361 512 q 367 528 380 556 q 392 584 409 611 q 426 638 448 658 q 469 677 493 677 q 512 677 520 664 q 527 652 527 638 q 527 627 524 617 q 522 607 519 598 q 511 575 496 550 q 480 525 462 500 q 444 475 425 452 q 406 430 391 412 q 382 402 373 392 q 364 383 356 372 q 343 324 335 276 q 327 227 322 178 q 382 240 429 307 q 438 319 446 332 q 453 344 461 356 q 463 358 464 359 q 464 360 465 361 q 467 363 468 364 q 468 365 470 367 q 473 369 476 371 q 480 373 485 373 q 498 373 498 360 q 498 357 497 355 q 477 301 442 250 q 406 199 368 157 q 360 147 352 138 q 343 129 334 121 q 332 119 330 118 q 329 116 327 114 l 321 108 z m 393 497 q 405 510 420 528 q 436 547 450 566 q 463 584 472 602 q 482 620 482 633 q 482 640 477 640 q 467 640 456 626 q 444 612 432 591 q 421 571 412 551 q 404 531 401 523 q 399 516 397 510 q 395 503 393 497 z m 281 142 l 281 150 q 281 188 288 232 q 296 276 305 315 q 285 293 254 259 q 223 225 191 188 q 154 144 127 106 q 100 68 100 48 q 100 34 116 34 q 132 34 151 42 q 170 51 190 64 q 209 76 226 90 q 243 104 255 114 q 258 116 262 119 q 265 122 269 125 q 272 128 276 131 q 279 134 281 138 z"},"_":{"x_min":0,"x_max":18,"ha":18,"o":"m -1062 -168 q -1074 -168 -1074 -156 q -1074 -152 -1073 -151 q -1060 -119 -1035 -100 q -1010 -82 -978 -72 q -947 -62 -914 -60 q -880 -57 -851 -57 q -761 -57 -672 -70 q -583 -84 -495 -98 q -419 -110 -340 -122 q -262 -135 -184 -135 q -168 -135 -148 -134 q -129 -132 -110 -128 q -92 -124 -76 -116 q -59 -109 -48 -96 q -46 -92 -42 -86 q -40 -83 -39 -80 q -38 -78 -36 -75 q -34 -70 -29 -66 q -24 -61 -17 -61 q -4 -61 -4 -73 q -4 -74 -4 -75 q -5 -76 -5 -78 q -19 -115 -48 -136 q -76 -158 -111 -170 q -146 -181 -184 -184 q -223 -187 -257 -187 q -352 -187 -446 -173 q -539 -159 -633 -143 q -668 -138 -704 -132 q -741 -125 -778 -119 q -816 -114 -852 -110 q -889 -107 -924 -107 q -950 -107 -981 -112 q -1012 -117 -1030 -135 q -1033 -138 -1037 -144 q -1039 -146 -1040 -148 q -1040 -151 -1042 -154 q -1045 -159 -1050 -164 q -1054 -168 -1062 -168 z"},"v":{"x_min":0,"x_max":290,"ha":290,"o":"m 258 116 q 245 98 226 78 q 206 57 182 40 q 159 22 134 11 q 108 0 83 0 q 52 0 38 16 q 25 33 25 60 q 25 82 31 105 q 37 128 45 148 q 49 159 58 180 q 67 201 80 226 q 93 252 108 278 q 124 304 140 326 q 156 347 172 361 q 188 375 203 375 q 208 375 212 372 q 216 370 216 364 q 216 361 214 356 q 212 352 210 348 q 208 344 206 340 q 204 336 202 334 q 191 314 171 275 q 151 236 131 193 q 111 150 96 112 q 81 74 81 55 q 81 44 85 38 q 89 31 99 31 q 115 31 136 48 q 157 65 178 92 q 199 119 220 152 q 240 185 256 218 q 272 250 282 278 q 291 305 291 321 l 291 324 l 291 325 q 281 327 281 337 q 281 345 288 350 q 294 356 302 356 q 325 356 333 340 q 341 324 341 307 q 341 290 336 274 q 332 257 327 242 q 321 225 313 209 q 305 193 297 177 q 294 172 291 168 q 288 164 286 159 q 291 161 295 164 q 299 167 304 170 q 329 186 343 200 q 347 204 350 208 q 354 211 358 216 q 363 221 367 226 q 371 231 376 237 q 381 246 393 246 q 405 246 405 234 q 405 229 401 225 q 375 187 339 159 q 303 131 258 116 z"},"O":{"x_min":0,"x_max":901,"ha":901,"o":"m 371 484 q 371 492 380 498 q 388 504 395 504 q 405 504 412 500 q 418 495 422 488 q 425 481 426 473 q 427 465 427 459 q 427 424 412 390 q 397 355 372 327 q 346 299 312 282 q 278 265 240 265 q 194 265 168 290 q 143 316 143 360 q 143 379 147 396 q 151 414 158 431 q 183 502 238 556 q 292 609 361 644 q 430 680 508 698 q 586 716 658 716 q 726 716 784 701 q 843 686 886 654 q 928 621 952 570 q 976 519 976 447 q 976 381 956 304 q 935 228 898 152 q 861 75 810 4 q 758 -67 696 -122 q 633 -176 562 -209 q 490 -242 414 -242 q 327 -242 282 -196 q 237 -149 237 -67 q 237 -10 258 59 q 280 128 318 198 q 355 268 406 334 q 456 401 516 452 q 575 503 640 534 q 704 565 769 565 q 822 565 852 536 q 881 507 881 456 q 881 436 876 416 q 872 397 865 378 q 848 332 818 290 q 787 249 746 217 q 706 185 658 166 q 609 147 557 147 q 552 147 548 150 q 543 153 543 159 q 543 168 551 176 q 559 183 567 183 q 613 183 657 212 q 701 242 736 286 q 771 329 792 378 q 814 428 814 469 q 814 497 801 513 q 788 529 758 529 q 712 529 667 506 q 622 482 580 443 q 538 404 500 355 q 463 306 432 255 q 401 204 378 156 q 354 107 341 70 q 328 35 319 -4 q 310 -42 310 -79 q 310 -135 336 -171 q 363 -207 425 -207 q 478 -207 528 -182 q 579 -156 623 -117 q 667 -78 703 -32 q 739 14 764 55 q 792 99 814 146 q 836 192 854 240 q 873 291 886 347 q 900 403 900 457 q 900 515 882 557 q 865 599 832 627 q 800 655 754 668 q 708 682 650 682 q 585 682 518 664 q 451 647 392 614 q 332 581 286 532 q 239 484 217 423 q 211 407 208 392 q 204 376 204 359 q 204 335 215 318 q 226 301 252 301 q 273 301 290 314 q 306 326 318 344 q 331 362 340 383 q 349 404 355 422 q 360 436 364 451 q 368 466 371 481 l 371 482 l 371 483 z"},"(":{"x_min":0,"x_max":274,"ha":274,"o":"m 123 -121 q 102 -121 88 -113 q 74 -105 66 -92 q 58 -79 55 -63 q 52 -47 52 -31 q 52 7 62 51 q 73 95 87 130 q 99 162 121 210 q 143 257 173 308 q 203 360 239 412 q 275 463 315 504 q 355 545 398 570 q 440 596 482 596 q 495 596 495 585 q 495 577 488 571 q 481 565 474 565 q 459 565 442 556 q 425 547 409 534 q 393 520 379 506 q 365 491 355 479 q 322 441 292 395 q 261 349 234 300 q 207 251 184 200 q 161 150 144 104 q 138 88 132 68 q 125 48 120 28 q 115 7 112 -13 q 108 -33 108 -49 q 108 -56 109 -64 q 110 -71 112 -77 q 118 -90 131 -90 q 144 -90 144 -102 q 144 -110 138 -116 q 131 -121 123 -121 z"},"C":{"x_min":0,"x_max":735,"ha":735,"o":"m 427 220 q 410 185 392 146 q 373 107 358 66 q 343 26 334 -16 q 324 -57 324 -96 q 324 -119 329 -140 q 334 -160 345 -176 q 356 -192 374 -201 q 392 -210 418 -210 q 449 -210 476 -196 q 504 -182 526 -160 q 549 -138 566 -110 q 582 -83 592 -56 q 597 -42 600 -28 q 604 -14 604 0 q 604 48 552 48 q 547 48 542 51 q 538 54 538 61 q 538 70 546 77 q 553 84 562 84 q 584 84 603 79 q 622 74 636 64 q 650 53 658 36 q 667 19 667 -4 q 667 -31 656 -58 q 643 -95 616 -129 q 590 -163 554 -188 q 519 -214 478 -229 q 438 -244 396 -244 q 320 -244 286 -200 q 251 -157 251 -89 q 251 -42 262 5 q 274 52 290 95 q 301 125 314 153 q 327 181 340 210 q 335 209 330 209 q 325 209 320 209 q 288 209 256 215 q 223 221 196 236 q 170 250 153 275 q 136 300 136 338 q 136 358 140 376 q 144 395 151 414 q 164 449 187 484 q 210 518 241 545 q 272 572 310 589 q 348 606 390 606 q 428 606 456 588 q 484 569 484 527 q 484 513 481 500 q 478 487 473 474 q 469 463 460 445 q 451 427 439 410 q 427 393 412 380 q 397 368 381 368 q 378 368 372 370 q 365 372 365 380 q 365 382 366 385 q 367 388 368 390 q 372 396 373 398 q 381 415 388 431 q 396 447 402 464 q 408 479 412 496 q 416 513 416 529 q 416 549 407 560 q 398 571 378 571 q 344 571 312 546 q 281 522 257 486 q 233 451 218 412 q 204 373 204 344 q 204 316 216 297 q 227 278 246 266 q 265 255 290 250 q 314 245 340 245 q 345 245 350 245 q 354 245 359 246 q 410 338 475 425 q 496 452 524 484 q 551 516 584 548 q 616 580 652 610 q 688 639 726 662 q 764 685 804 699 q 843 713 882 713 q 921 713 950 695 q 978 677 978 634 q 978 620 975 606 q 972 592 967 579 q 949 532 916 490 q 882 447 838 410 q 794 373 742 342 q 690 311 636 287 q 582 263 528 246 q 475 229 427 220 z m 447 259 q 511 275 582 306 q 652 338 715 382 q 778 425 828 479 q 877 533 900 595 q 904 606 907 618 q 910 629 910 640 q 910 677 867 677 q 842 677 818 668 q 794 658 773 645 q 726 616 679 570 q 632 524 590 471 q 547 418 510 362 q 473 307 447 259 z"},"W":{"x_min":0,"x_max":1106,"ha":1106,"o":"m 534 -147 q 516 -162 493 -179 q 470 -196 446 -210 q 421 -223 395 -232 q 369 -241 344 -241 q 299 -241 274 -220 q 248 -200 248 -155 q 248 -129 255 -102 q 262 -76 270 -52 q 295 14 332 85 q 349 119 368 152 q 386 185 403 217 q 423 253 448 300 q 473 346 496 396 q 519 446 535 494 q 551 543 551 582 q 551 623 532 649 q 514 675 469 675 q 436 675 404 660 q 372 646 344 622 q 316 598 292 566 q 269 535 252 502 q 235 468 226 434 q 216 400 216 371 q 216 343 228 324 q 241 304 272 304 q 291 304 308 315 q 325 326 339 342 q 353 358 363 377 q 373 396 379 413 q 385 430 390 446 q 394 463 398 480 q 398 482 398 484 q 399 485 399 487 q 400 489 400 490 q 400 492 402 494 q 405 502 411 504 q 417 507 425 507 q 435 507 440 502 q 446 498 449 492 q 452 486 453 479 q 454 472 454 466 q 454 449 450 432 q 446 414 441 399 q 430 371 412 348 q 395 324 372 306 q 348 289 320 279 q 291 269 260 269 q 208 269 180 296 q 151 324 151 375 q 151 398 156 420 q 161 442 169 463 q 186 509 217 554 q 248 599 289 634 q 330 670 380 692 q 430 713 485 713 q 554 713 588 676 q 621 639 621 575 q 621 540 611 500 q 601 460 584 416 q 568 373 546 328 q 524 283 500 237 q 475 191 450 146 q 425 101 402 58 q 379 14 360 -26 q 341 -65 328 -100 q 322 -116 317 -134 q 312 -151 312 -167 q 312 -206 354 -206 q 373 -206 394 -199 q 414 -192 434 -180 q 454 -169 472 -156 q 490 -143 504 -131 q 508 -128 512 -124 q 516 -121 520 -118 q 525 -114 528 -110 q 532 -107 535 -104 l 535 -103 q 537 -95 538 -86 q 538 -78 540 -70 q 545 -45 552 -22 q 559 2 567 25 q 574 45 588 78 q 603 110 622 147 q 641 184 664 221 q 688 258 714 288 q 739 318 766 337 q 794 356 821 356 q 839 356 846 345 q 854 334 854 319 q 854 307 851 295 q 848 283 844 272 q 835 246 822 221 q 810 196 796 173 q 769 127 738 84 q 708 41 675 0 q 661 -18 646 -34 q 630 -51 616 -68 q 614 -70 612 -80 q 610 -91 608 -104 q 607 -118 606 -130 q 604 -142 604 -147 q 604 -170 612 -188 q 621 -206 647 -206 q 669 -206 695 -192 q 721 -179 748 -157 q 775 -135 802 -108 q 828 -80 852 -52 q 875 -25 894 0 q 914 25 926 42 q 998 142 1061 254 q 1124 367 1166 482 q 1171 495 1176 512 q 1182 529 1187 547 q 1192 565 1195 582 q 1198 599 1198 612 q 1198 614 1198 618 q 1198 622 1197 625 q 1195 631 1190 631 q 1177 631 1177 643 q 1177 651 1184 658 q 1191 666 1201 666 q 1219 666 1230 659 q 1242 652 1248 641 q 1254 630 1256 616 q 1259 602 1259 589 q 1259 570 1256 548 q 1252 527 1246 505 q 1241 483 1234 462 q 1228 440 1221 422 q 1201 370 1174 316 q 1148 261 1116 208 q 1085 155 1050 104 q 1015 54 980 11 q 953 -22 912 -66 q 872 -109 824 -148 q 777 -187 726 -214 q 674 -241 625 -241 q 576 -241 556 -214 q 536 -187 534 -147 z m 639 7 q 662 35 688 68 q 713 102 736 137 q 759 172 778 208 q 798 243 809 274 q 812 282 814 292 q 817 302 817 310 q 817 319 811 319 q 809 319 806 316 q 803 314 796 307 q 791 300 784 292 q 778 284 772 276 q 760 259 750 243 q 740 227 738 223 q 710 175 685 118 q 660 62 641 11 q 639 7 639 7 z"},"A":{"x_min":0,"x_max":910,"ha":910,"o":"m 434 141 q 426 140 423 137 q 420 134 418 131 q 416 127 415 126 q 414 124 413 124 q 412 123 411 121 q 406 116 398 116 q 385 116 385 128 q 385 130 386 131 q 386 132 386 133 q 396 156 415 168 q 434 180 457 187 q 467 207 477 228 q 487 248 498 269 q 536 345 574 420 q 613 496 661 568 q 675 589 690 609 q 705 629 722 648 q 723 650 725 652 q 727 653 729 655 q 732 657 738 663 q 746 669 749 674 q 691 669 623 657 q 555 645 489 624 q 423 602 364 571 q 306 540 266 498 q 232 462 212 414 q 202 386 202 359 q 202 335 214 318 q 225 301 251 301 q 272 301 288 314 q 305 326 318 344 q 330 362 339 383 q 348 404 354 422 q 364 450 369 481 q 370 481 370 482 l 370 483 l 370 484 q 370 492 378 498 q 387 504 394 504 q 414 504 420 488 q 425 472 425 459 q 425 424 410 390 q 396 355 370 328 q 345 300 311 282 q 277 265 239 265 q 194 265 168 290 q 141 315 141 360 q 141 376 144 392 q 148 409 153 423 q 177 482 223 527 q 257 560 302 587 q 348 614 400 634 q 453 655 510 670 q 568 685 625 694 q 682 704 736 708 q 791 713 838 713 q 851 713 851 700 q 851 692 844 684 q 838 677 828 677 q 808 677 784 650 q 760 624 736 586 q 713 549 695 514 q 677 478 669 462 l 627 378 q 638 392 652 408 q 665 423 679 440 q 701 466 725 492 q 749 518 775 543 q 801 568 828 590 q 855 612 882 628 q 909 645 936 655 q 963 665 988 665 q 1027 665 1043 644 q 1059 622 1059 588 q 1059 556 1049 520 q 1039 483 1028 454 q 1008 398 982 345 q 956 292 929 239 q 919 221 909 203 q 899 185 890 166 q 901 168 906 172 q 910 176 912 180 q 913 181 915 185 q 916 186 916 187 q 917 188 918 189 q 924 195 932 195 q 944 195 944 183 q 944 180 943 178 q 932 152 910 139 q 889 126 863 120 q 861 116 858 110 q 855 104 852 98 q 847 90 843 82 q 839 75 837 73 q 832 64 824 49 q 815 34 804 15 q 794 -4 782 -25 q 771 -46 760 -68 q 737 -112 720 -150 q 704 -188 704 -204 l 704 -206 l 704 -207 l 705 -207 q 706 -207 707 -208 q 711 -208 714 -210 q 717 -212 717 -220 q 717 -229 710 -236 q 702 -242 693 -242 q 669 -242 660 -228 q 651 -215 651 -195 q 651 -173 658 -148 q 664 -123 672 -103 q 686 -64 704 -26 q 722 12 741 50 q 749 65 757 80 q 765 95 773 111 q 706 112 641 122 q 576 131 510 139 q 493 106 470 65 q 448 24 420 -18 q 392 -61 360 -102 q 327 -142 290 -174 q 252 -205 210 -224 q 169 -243 124 -243 q 96 -243 70 -236 q 45 -229 26 -214 q 6 -199 -6 -177 q -17 -155 -17 -125 q -17 -84 2 -42 q 21 0 53 34 q 85 67 126 88 q 167 110 212 110 q 229 110 246 106 q 264 102 278 94 q 293 85 302 71 q 311 57 311 37 q 311 23 304 4 q 297 -16 285 -34 q 273 -52 257 -64 q 241 -77 223 -77 q 216 -77 212 -72 q 209 -68 209 -63 q 209 -59 211 -55 q 212 -54 214 -50 q 224 -31 234 -7 q 244 17 244 37 q 244 73 204 73 q 171 73 142 53 q 114 33 93 4 q 72 -26 60 -60 q 48 -95 48 -124 q 48 -162 69 -184 q 90 -207 130 -207 q 160 -207 188 -193 q 215 -179 238 -158 q 262 -136 282 -110 q 301 -85 317 -62 q 340 -27 360 8 q 381 44 401 80 q 409 95 418 110 q 426 126 434 141 z m 539 196 q 607 195 672 186 q 737 177 804 169 q 806 174 810 182 q 815 190 820 199 q 826 211 832 221 q 837 231 839 234 q 854 262 880 312 q 906 361 932 416 q 958 471 977 520 q 996 570 996 597 q 996 612 990 621 q 983 630 967 630 q 940 630 904 607 q 867 584 827 548 q 787 512 746 467 q 705 422 668 378 q 632 335 604 297 q 575 259 559 236 q 558 235 556 230 q 553 226 550 220 q 547 213 544 206 q 541 200 539 196 z"},"f":{"x_min":0,"x_max":124,"ha":124,"o":"m 52 7 q 56 -4 56 -15 q 56 -32 52 -49 q 47 -66 42 -80 q 37 -94 26 -120 q 14 -145 -1 -171 q -16 -196 -34 -216 q -52 -237 -70 -237 q -77 -237 -82 -234 q -86 -230 -88 -225 q -90 -220 -90 -215 q -91 -210 -91 -206 q -91 -192 -88 -174 q -84 -157 -78 -139 q -73 -121 -68 -104 q -62 -87 -57 -74 q -22 20 18 110 q 59 201 104 291 q 142 365 183 437 q 224 509 272 577 q 275 582 280 588 q 284 594 289 601 q 299 616 312 630 q 325 644 340 655 q 355 666 369 666 q 381 666 386 660 q 391 653 391 643 q 391 631 384 612 q 376 594 364 571 q 351 548 335 522 q 319 497 301 472 q 283 446 265 421 q 247 396 231 374 q 215 352 202 334 q 188 316 180 305 q 171 285 162 266 q 152 247 143 228 q 120 181 97 134 q 74 88 53 40 q 67 52 86 74 q 106 95 125 119 q 144 143 160 166 q 176 188 185 200 q 192 209 198 218 q 204 228 212 237 q 219 246 229 246 q 241 246 241 234 q 241 228 238 225 q 224 204 202 172 q 179 141 153 108 q 127 76 100 48 q 74 20 53 8 z m -43 -187 q -33 -172 -22 -151 q -10 -130 -1 -108 q 8 -86 14 -66 q 21 -45 23 -30 q 6 -69 -11 -108 q -28 -147 -43 -187 z m 262 465 q 276 486 292 510 q 308 534 322 558 q 336 581 346 600 q 356 620 358 631 q 350 623 334 596 q 318 568 299 533 q 289 516 280 498 q 270 481 262 465 z"},"Q":{"x_min":0,"x_max":887,"ha":887,"o":"m 603 -130 q 608 -144 615 -156 q 622 -171 630 -182 q 639 -194 651 -202 q 663 -209 679 -209 q 698 -209 717 -198 q 736 -187 751 -170 q 766 -152 776 -132 q 785 -111 785 -93 q 785 -77 779 -72 q 773 -67 765 -65 q 760 -64 756 -64 q 753 -64 749 -63 q 739 -59 739 -51 q 739 -42 747 -35 q 755 -28 764 -28 q 778 -28 793 -30 q 808 -33 820 -40 q 833 -47 841 -58 q 849 -70 849 -88 q 849 -96 847 -104 q 845 -111 843 -119 q 834 -144 816 -166 q 798 -188 774 -205 q 751 -222 724 -232 q 696 -242 669 -242 q 644 -242 625 -235 q 606 -228 590 -216 q 574 -203 562 -187 q 549 -171 537 -153 q 490 -167 443 -167 q 355 -167 308 -122 q 262 -77 262 7 q 262 63 282 126 q 303 189 339 251 q 375 313 424 370 q 472 426 528 470 q 585 513 646 539 q 708 565 769 565 q 822 565 852 536 q 881 507 881 456 q 881 436 876 416 q 872 397 865 378 q 848 332 818 290 q 787 249 746 217 q 706 185 658 166 q 609 147 557 147 q 552 147 548 150 q 543 153 543 159 q 543 168 551 176 q 559 183 567 183 q 613 183 657 212 q 701 242 736 286 q 771 329 792 378 q 814 428 814 469 q 814 497 801 513 q 788 529 758 529 q 714 529 672 510 q 629 490 590 458 q 550 425 514 383 q 479 341 450 297 q 420 253 398 210 q 376 166 363 130 q 357 114 353 99 q 349 84 345 68 q 434 64 492 26 q 551 -12 586 -92 q 636 -63 680 -20 q 723 23 759 74 q 795 124 823 178 q 851 233 870 285 q 887 330 898 378 q 910 427 910 475 q 910 579 850 630 q 791 682 685 682 q 616 682 544 667 q 472 652 408 620 q 343 588 292 539 q 242 490 217 423 q 211 408 208 392 q 204 376 204 359 q 204 335 215 318 q 226 301 252 301 q 273 301 290 314 q 306 326 318 344 q 331 362 340 383 q 349 404 355 422 q 360 436 364 451 q 368 466 371 481 l 371 482 l 371 483 l 371 484 q 371 492 380 498 q 388 504 395 504 q 415 504 421 488 q 427 472 427 459 q 427 424 412 390 q 397 355 372 328 q 346 300 312 282 q 278 265 240 265 q 194 265 168 290 q 143 316 143 360 q 143 379 147 397 q 151 415 158 432 q 186 508 244 562 q 302 616 376 650 q 450 684 532 700 q 614 716 690 716 q 753 716 808 702 q 862 687 902 656 q 942 626 964 578 q 987 531 987 465 q 987 417 976 370 q 966 323 949 278 q 926 217 892 157 q 859 97 816 43 q 772 -11 718 -56 q 665 -100 603 -129 z m 518 -120 q 502 -93 484 -68 q 467 -44 446 -24 q 424 -4 398 10 q 372 24 339 29 q 339 28 338 28 q 338 27 338 26 q 338 20 337 16 l 337 -2 q 337 -59 364 -95 q 391 -131 454 -131 q 470 -131 486 -128 q 502 -126 517 -121 z"},"w":{"x_min":0,"x_max":409,"ha":409,"o":"m 148 27 q 131 16 111 8 q 91 0 69 0 q 42 0 32 16 q 23 33 23 54 q 23 77 30 102 q 36 127 44 148 q 48 159 57 180 q 66 201 79 226 q 92 252 108 278 q 123 304 139 326 q 155 347 171 361 q 187 375 202 375 q 207 375 211 372 q 215 370 215 364 q 215 361 213 356 q 211 352 209 348 q 207 344 205 340 q 203 336 201 334 q 190 313 170 274 q 149 234 129 190 q 108 145 93 106 q 78 67 78 47 q 78 42 80 36 q 83 31 88 31 q 102 31 117 40 q 132 49 143 57 l 144 58 q 145 63 144 68 q 144 72 145 77 q 147 91 152 104 q 156 118 161 132 q 167 150 181 178 q 195 206 214 233 q 232 260 255 280 q 278 299 302 299 q 315 299 319 291 q 323 283 323 274 q 323 258 316 239 q 303 203 278 166 q 253 128 228 99 q 221 92 215 86 q 209 79 202 72 q 200 70 199 70 q 198 69 196 67 q 195 65 194 64 q 193 64 192 62 q 192 62 192 60 q 191 59 191 58 l 191 57 q 191 46 195 38 q 199 31 210 31 q 228 31 250 48 q 272 64 294 90 q 317 117 338 150 q 359 183 375 215 q 391 247 401 276 q 411 304 411 321 l 411 324 l 411 325 q 401 327 401 337 q 401 345 408 350 q 414 356 422 356 q 445 356 453 340 q 461 324 461 307 q 461 290 456 274 q 452 257 447 242 q 440 224 432 208 q 425 191 415 174 q 413 171 410 168 q 408 164 406 160 q 426 170 445 185 q 464 200 478 216 q 483 221 486 226 q 490 232 495 237 q 502 246 512 246 q 524 246 524 234 q 524 231 523 229 q 522 227 521 225 q 494 187 458 159 q 422 131 377 116 q 363 96 342 76 q 322 55 298 38 q 274 22 248 11 q 221 0 194 0 q 178 0 166 6 q 154 13 148 27 z m 210 124 q 222 139 236 158 q 250 177 262 196 q 274 216 282 234 q 291 253 291 267 q 290 266 290 265 q 289 264 287 263 q 285 260 282 256 q 279 253 276 249 q 270 241 266 234 q 261 227 259 225 q 244 201 232 176 q 220 150 210 124 z"},"-":{"x_min":0,"x_max":344,"ha":344,"o":"m 141 220 q 141 229 148 234 q 155 240 164 243 q 183 250 212 252 q 238 255 263 255 q 288 255 298 255 q 304 255 316 254 q 328 254 340 252 q 353 250 363 246 q 368 243 371 240 q 374 236 374 230 q 374 216 360 209 q 346 202 331 199 q 314 195 298 194 q 282 194 274 194 q 250 194 226 196 q 203 197 180 199 q 178 200 176 200 q 173 200 170 201 q 164 201 158 204 q 152 206 146 210 q 141 213 141 220 z"},"E":{"x_min":0,"x_max":734,"ha":734,"o":"m 463 236 q 459 251 459 269 q 459 271 460 274 q 460 277 460 281 l 460 288 q 434 284 408 282 q 382 280 356 280 q 328 280 293 284 q 258 288 227 300 q 196 312 174 335 q 153 358 153 396 q 153 435 176 472 q 198 510 232 540 q 267 570 309 588 q 351 606 390 606 q 428 606 456 588 q 485 569 485 527 q 485 502 475 474 q 471 463 462 445 q 453 427 441 410 q 429 393 414 380 q 399 368 383 368 q 381 368 373 370 q 367 372 367 380 q 367 385 370 390 q 372 392 372 394 q 373 396 374 398 q 382 415 390 431 q 398 447 404 464 q 409 479 414 496 q 418 513 418 529 q 418 549 410 560 q 401 571 380 571 q 353 571 325 554 q 297 537 274 512 q 251 486 236 456 q 222 427 222 402 q 222 375 236 358 q 251 341 274 332 q 296 322 322 319 q 348 316 372 316 q 395 316 418 318 q 441 320 464 323 q 464 323 465 324 q 469 341 473 356 q 477 372 483 389 q 504 445 542 502 q 580 560 630 607 q 680 654 741 684 q 802 713 870 713 q 889 713 909 710 q 929 706 944 697 q 960 688 970 673 q 980 658 980 634 q 980 608 969 581 q 946 521 898 475 q 850 429 790 394 q 729 360 662 337 q 596 314 537 302 q 535 298 534 290 q 534 282 533 274 q 533 261 532 257 l 532 253 q 543 255 555 256 q 567 257 578 257 q 588 257 602 256 q 615 256 627 251 q 640 247 649 238 q 658 230 658 216 q 658 205 655 198 q 644 169 618 158 q 593 148 564 148 q 537 148 514 158 q 491 169 477 193 q 439 173 402 140 q 364 107 335 66 q 306 25 288 -20 q 270 -65 270 -108 q 270 -155 296 -181 q 321 -207 370 -207 q 405 -207 440 -193 q 476 -179 506 -156 q 537 -132 560 -102 q 583 -72 595 -40 q 603 -19 603 0 q 603 25 588 36 q 574 48 549 48 q 544 48 539 51 q 534 54 534 61 q 534 70 542 77 q 550 84 559 84 q 580 84 599 80 q 618 75 633 66 q 648 56 657 40 q 666 24 666 1 q 666 -11 664 -23 q 661 -35 657 -46 q 649 -69 636 -89 q 623 -109 607 -126 q 559 -180 492 -211 q 426 -242 353 -242 q 318 -242 288 -234 q 259 -226 238 -208 q 216 -191 204 -165 q 191 -139 191 -103 q 191 -50 215 2 q 239 55 278 100 q 317 145 366 180 q 414 216 462 235 z m 548 341 q 600 354 655 376 q 710 399 758 431 q 807 463 845 504 q 883 546 902 597 q 906 607 908 617 q 911 627 911 637 q 911 660 896 668 q 882 677 859 677 q 825 677 792 662 q 759 647 729 622 q 699 598 672 566 q 645 534 623 500 q 601 466 584 432 q 567 398 557 370 q 554 363 552 356 q 550 348 548 341 z m 538 216 q 549 183 582 183 q 595 183 608 188 q 621 194 621 207 q 621 214 607 219 q 601 221 594 222 q 588 222 583 222 q 560 222 538 216 z"},"s":{"x_min":0,"x_max":254,"ha":254,"o":"m 85 218 q 82 222 82 227 q 82 231 83 232 q 83 234 84 234 q 84 235 85 236 l 89 243 q 102 263 114 282 q 126 301 138 321 q 143 329 148 337 q 153 345 157 353 q 153 358 152 364 q 151 371 151 376 q 151 389 157 407 q 163 425 174 441 q 184 457 198 468 q 213 480 230 480 q 238 480 244 476 q 249 472 249 463 q 249 454 246 447 q 241 432 232 418 q 222 403 213 390 q 209 384 206 381 q 204 379 202 375 q 244 371 264 344 q 283 318 283 279 q 283 258 278 237 q 274 216 266 196 q 248 146 214 99 q 211 95 208 91 q 204 87 201 83 q 230 105 255 130 q 280 155 303 184 q 313 197 322 210 q 330 224 340 237 q 347 246 358 246 q 370 246 370 234 q 370 229 366 225 q 340 187 307 147 q 274 107 234 74 q 194 42 148 21 q 102 0 49 0 q 22 0 4 15 q -15 30 -15 58 q -15 69 -10 85 q -5 101 4 116 q 14 130 26 140 q 39 150 54 150 q 58 150 62 148 q 67 146 67 138 q 67 133 62 123 q 60 118 58 113 q 55 108 53 102 q 47 91 42 78 q 38 65 38 54 q 38 31 60 31 q 82 31 104 51 q 125 71 144 98 q 162 126 176 156 q 190 185 197 203 q 205 224 210 248 q 216 273 216 295 q 216 312 210 327 q 204 342 186 344 l 185 343 q 182 337 171 319 q 160 301 148 282 q 136 262 125 245 q 114 228 111 224 q 108 221 104 218 q 100 215 94 215 l 89 215 l 85 216 z"},">":{"x_min":0,"x_max":271,"ha":271,"o":"m 276 227 q 265 232 248 242 q 231 252 214 264 q 196 276 182 290 q 167 304 167 317 q 167 330 177 336 q 187 342 198 342 q 216 342 236 331 q 255 320 269 311 q 276 306 288 297 q 301 288 314 277 q 327 266 338 254 q 348 243 348 234 q 348 228 344 222 q 341 217 334 214 q 327 210 320 207 q 312 203 306 201 q 299 199 294 197 q 279 192 258 184 q 236 176 213 169 q 190 162 168 157 q 146 152 131 152 q 129 152 126 152 q 122 152 119 153 q 116 154 112 156 q 109 158 109 163 q 109 168 117 174 q 122 178 134 183 q 144 188 158 192 q 171 197 185 202 q 213 211 239 218 q 265 225 276 227 z"},"l":{"x_min":0,"x_max":142,"ha":142,"o":"m 64 34 q 69 38 80 48 q 90 58 101 70 q 115 85 126 98 q 138 112 142 117 q 157 137 172 156 q 187 175 201 195 q 209 206 216 216 q 222 227 230 237 q 237 246 247 246 q 260 246 260 234 q 260 229 256 225 q 249 215 234 194 q 220 173 202 148 q 183 123 162 96 q 141 70 120 48 q 99 27 80 14 q 62 0 49 0 q 33 0 26 14 q 23 19 22 26 q 21 33 21 39 q 21 51 24 66 q 27 82 31 98 q 35 113 40 128 q 45 142 50 154 q 58 175 80 222 q 101 268 130 325 q 159 382 194 442 q 228 503 262 552 q 297 602 328 634 q 360 666 384 666 q 396 666 400 660 q 405 653 405 643 q 405 630 397 610 q 389 590 376 566 q 362 541 344 514 q 326 486 307 458 q 287 430 268 402 q 248 375 230 351 q 212 327 198 308 q 183 288 174 276 q 156 238 138 200 q 119 163 101 125 q 93 107 84 88 q 76 70 69 52 q 69 50 68 47 q 67 44 66 41 q 64 35 64 34 z m 246 419 q 263 443 284 474 q 306 506 325 536 q 344 567 357 593 q 370 619 372 632 q 371 631 365 623 q 360 618 356 610 q 351 603 346 595 q 336 579 328 565 q 319 551 316 546 q 298 514 280 482 q 263 451 246 419 z"},"8":{"x_min":0,"x_max":473,"ha":473,"o":"m 297 350 q 280 363 273 380 q 266 398 266 418 q 266 432 269 446 q 272 460 277 473 q 291 511 318 546 q 345 580 380 606 q 415 633 456 649 q 498 665 541 665 q 585 665 615 645 q 645 625 645 578 q 645 542 628 506 q 611 471 584 440 q 557 409 524 384 q 491 360 458 347 q 484 334 497 312 q 510 290 510 261 q 510 233 499 205 q 484 162 453 124 q 422 87 382 60 q 342 32 296 16 q 249 0 202 0 q 177 0 154 6 q 131 11 113 23 q 95 35 84 54 q 74 73 74 101 q 74 130 85 158 q 97 191 118 221 q 140 251 168 276 q 197 301 230 320 q 263 339 297 349 z m 375 366 q 408 366 444 390 q 480 413 510 448 q 539 482 558 520 q 577 559 577 590 q 577 630 538 630 q 506 630 470 606 q 435 582 406 547 q 377 512 358 474 q 339 435 339 405 q 339 387 348 376 q 356 366 375 366 z m 148 91 q 148 36 206 36 q 242 36 278 53 q 313 70 343 97 q 373 124 396 156 q 418 189 429 220 q 439 248 439 271 q 439 327 379 327 q 341 327 300 304 q 259 281 225 246 q 191 210 170 168 q 148 127 148 91 z"},"\\":{"x_min":0,"x_max":173,"ha":173,"o":"m 140 16 l 140 22 q 140 41 142 60 q 144 78 146 97 q 150 125 154 153 q 158 181 163 209 q 176 288 190 366 q 203 445 219 523 q 221 533 224 548 q 227 564 230 581 q 234 598 238 614 q 242 629 246 638 q 249 645 255 653 q 261 661 272 661 q 280 661 283 656 q 286 650 286 645 l 286 632 q 284 600 280 568 q 275 535 270 503 q 261 449 252 396 q 243 342 232 288 q 224 240 215 194 q 206 148 195 100 q 193 92 192 82 q 190 72 187 61 q 185 50 182 40 q 179 29 176 22 q 172 12 169 8 q 162 1 153 1 q 143 1 140 9 z"},"e":{"x_min":0,"x_max":258,"ha":258,"o":"m 116 151 q 114 147 112 144 q 111 141 110 137 q 104 120 99 101 q 94 82 94 65 q 94 51 99 41 q 104 31 118 31 q 134 31 155 42 q 176 53 196 68 q 217 84 235 102 q 253 119 264 131 q 285 154 304 180 q 323 206 341 232 l 343 234 q 343 235 345 237 q 346 239 348 240 q 349 242 351 244 q 355 247 362 247 q 374 247 374 235 q 374 229 362 211 q 349 193 334 173 q 318 153 304 136 q 291 120 286 115 q 270 97 248 77 q 227 57 202 40 q 178 22 151 11 q 124 0 97 0 q 60 0 44 21 q 27 42 27 75 q 27 102 37 135 q 47 168 64 202 q 82 235 106 266 q 130 297 158 322 q 186 346 217 360 q 248 375 279 375 q 302 375 321 365 q 340 355 340 329 q 340 314 334 299 q 323 270 300 244 q 276 219 245 200 q 214 180 180 168 q 146 155 116 151 z m 131 186 q 152 193 175 208 q 198 222 218 240 q 239 258 254 278 q 270 299 277 318 q 279 323 280 327 q 281 331 281 335 q 281 344 272 344 q 253 344 232 326 q 210 308 190 283 q 171 258 156 231 q 140 204 131 186 z"},"b":{"x_min":0,"x_max":311,"ha":311,"o":"m 66 18 q 65 10 58 5 q 52 0 45 0 q 32 0 25 13 q 21 22 21 35 q 21 48 24 64 q 27 81 32 98 q 37 114 42 130 q 47 146 52 158 q 61 181 81 228 q 101 275 128 332 q 156 388 188 448 q 221 507 255 556 q 289 604 322 635 q 355 666 384 666 q 395 666 400 660 q 406 653 406 643 q 406 636 404 630 q 403 623 401 617 q 392 592 379 571 q 373 560 366 550 q 360 539 354 528 q 331 492 308 458 q 284 423 259 388 q 252 379 246 370 q 239 362 233 353 q 246 363 262 369 q 277 375 295 375 q 327 375 340 355 q 352 335 352 309 q 352 289 348 270 q 343 250 336 232 q 322 196 300 159 q 279 122 254 91 q 248 84 242 78 q 237 71 230 65 q 269 88 302 120 q 334 152 361 187 q 370 199 378 212 q 387 225 397 237 q 404 246 414 246 q 426 246 426 234 q 426 228 423 225 q 396 186 364 146 q 331 106 291 74 q 251 41 205 20 q 159 0 105 0 q 81 0 66 18 z m 249 424 q 267 449 288 480 q 309 511 328 541 q 346 571 359 596 q 372 621 373 633 q 366 626 346 594 q 326 563 302 520 q 288 494 274 469 q 260 444 249 424 z m 109 31 q 131 31 156 58 q 182 86 206 124 q 229 161 247 198 q 265 236 273 256 q 278 270 283 288 q 288 307 288 322 q 288 331 286 338 q 283 344 275 344 q 263 344 246 330 q 230 317 212 296 q 194 274 176 248 q 158 222 143 197 q 128 172 116 150 q 105 129 100 117 q 95 105 92 90 q 88 74 88 61 q 88 49 92 40 q 97 31 109 31 z"},"%":{"x_min":0,"x_max":204,"ha":204,"o":"m 288 573 q 274 573 268 582 q 263 590 263 601 q 263 610 268 622 q 272 633 280 642 q 287 652 298 658 q 308 665 319 665 q 333 665 338 656 q 344 647 344 636 q 344 627 340 616 q 335 605 328 596 q 320 586 310 580 q 299 573 288 573 z m 34 13 q 34 17 40 30 q 45 43 54 62 q 63 80 74 102 q 86 125 98 148 q 110 171 122 194 q 135 217 146 236 q 156 256 164 270 q 172 284 175 290 q 204 345 234 398 q 265 452 296 506 q 314 538 333 570 q 352 603 373 634 q 375 636 379 642 q 383 648 385 650 q 394 661 405 661 q 413 661 416 656 q 418 651 418 646 q 418 639 410 620 q 402 602 392 582 q 381 562 372 544 q 362 526 359 521 q 349 503 326 460 q 302 416 272 361 q 241 306 208 246 q 174 187 144 136 q 114 84 90 48 q 67 12 58 5 q 54 1 46 1 q 34 1 34 13 z m 133 -5 q 120 -5 114 4 q 108 13 108 23 q 108 33 112 44 q 117 55 124 64 q 132 74 142 80 q 153 87 164 87 q 178 87 184 78 q 190 69 190 59 q 190 49 186 38 q 181 27 173 18 q 165 8 155 2 q 145 -5 133 -5 z"},"m":{"x_min":0,"x_max":459,"ha":459,"o":"m 60 18 l 60 16 q 59 15 59 14 q 56 9 51 4 q 46 0 38 0 q 20 0 14 12 q 8 25 8 38 q 8 55 14 74 q 19 93 25 109 q 29 119 40 143 q 50 167 64 196 q 79 226 96 258 q 114 289 132 315 q 149 341 165 358 q 181 375 193 375 q 201 375 204 370 q 206 365 206 360 q 206 350 197 328 q 188 306 177 283 q 172 272 166 262 q 161 251 156 242 q 164 255 174 268 q 183 281 193 295 q 218 327 246 351 q 274 375 301 375 q 325 375 333 359 q 341 343 341 325 q 341 307 336 289 q 332 271 326 254 q 325 252 324 250 q 323 247 322 245 q 331 259 342 273 q 352 287 363 301 q 386 330 412 352 q 439 375 465 375 q 489 375 497 359 q 505 343 505 325 q 505 300 496 272 q 487 243 473 214 q 460 185 446 158 q 431 132 419 110 q 410 93 400 75 q 391 57 384 38 q 384 37 383 36 q 389 40 392 44 q 397 49 404 56 q 410 62 417 70 q 431 85 442 99 q 454 113 457 117 q 473 137 488 156 q 502 176 516 196 q 524 206 531 216 q 538 227 546 237 q 551 246 563 246 q 575 246 575 234 q 575 229 571 225 q 564 215 550 194 q 536 173 518 148 q 499 123 478 97 q 456 71 436 50 q 415 28 397 14 q 379 0 366 0 q 349 0 341 10 q 333 19 333 35 q 333 51 340 72 q 347 93 356 115 q 366 138 376 158 q 385 179 393 193 q 405 219 416 244 q 427 269 437 295 q 439 300 441 306 q 443 311 445 317 q 447 323 448 328 q 449 333 449 338 q 449 342 448 343 q 448 343 446 344 q 437 344 419 325 q 401 306 379 276 q 357 246 333 210 q 309 174 288 140 q 267 106 252 79 q 236 52 231 40 l 231 39 l 231 38 l 231 37 q 230 36 230 35 q 227 29 222 24 q 216 19 207 19 q 190 19 182 28 q 174 38 174 54 q 174 69 180 88 q 186 108 195 128 q 203 148 212 167 q 221 186 229 200 q 241 223 252 247 q 264 271 273 296 q 275 301 276 306 q 278 312 280 317 q 285 330 285 338 q 285 340 284 341 q 284 342 284 343 q 283 343 283 344 q 283 344 282 344 q 273 344 254 324 q 235 303 214 274 q 194 247 176 221 q 159 195 154 186 q 128 146 103 104 q 78 62 60 19 z"},"#":{"x_min":0,"x_max":382,"ha":382,"o":"m 146 200 q 137 200 128 203 q 122 205 116 208 q 110 212 110 220 q 110 231 119 236 q 128 242 138 245 q 148 247 158 248 q 167 249 174 250 q 176 253 178 258 q 181 263 184 268 q 188 275 191 282 q 194 288 196 290 q 198 295 204 304 q 209 313 215 324 q 219 332 222 338 q 226 345 228 349 q 222 350 213 350 q 204 350 196 352 q 183 354 176 358 q 165 363 165 372 q 165 378 170 383 q 174 388 179 391 q 185 394 192 396 q 200 397 208 399 q 222 401 236 402 q 250 403 258 403 q 261 410 272 430 q 283 450 298 476 q 313 501 330 530 q 347 559 362 584 q 378 609 390 627 q 401 645 405 649 q 409 653 414 657 q 418 661 426 661 q 434 661 436 656 q 439 651 439 646 q 439 641 434 629 q 430 617 422 601 q 414 585 404 566 q 394 547 384 528 q 364 490 344 456 q 325 421 317 405 q 339 406 360 406 q 381 406 403 406 q 406 413 417 432 q 428 452 443 478 q 458 503 474 532 q 491 560 506 584 q 521 609 532 627 q 544 645 548 649 q 552 653 556 657 q 561 661 569 661 q 577 661 580 656 q 582 651 582 646 q 582 641 578 629 q 573 617 565 601 q 557 585 547 566 q 537 546 527 527 q 516 508 506 489 q 495 470 486 454 q 477 437 470 424 q 462 410 458 402 q 464 402 472 398 q 485 394 485 382 q 485 372 478 366 q 470 359 461 356 q 453 352 444 350 q 435 349 429 348 q 419 329 408 310 q 397 292 387 274 q 384 269 381 264 q 378 259 375 254 q 381 254 388 253 q 396 252 403 250 q 413 248 421 244 q 430 239 430 230 q 430 216 418 210 q 405 203 391 200 q 377 197 363 196 q 349 195 341 194 q 338 188 330 172 q 321 156 309 136 q 297 116 283 94 q 269 72 257 53 q 245 34 236 20 q 226 7 222 5 q 217 1 210 1 q 197 1 197 13 q 197 20 207 40 q 217 61 228 84 q 240 107 251 128 q 262 149 267 157 q 269 162 272 168 q 276 173 279 178 l 287 194 l 200 197 q 197 191 188 174 q 179 158 166 138 q 154 117 140 95 q 126 73 114 54 q 101 34 92 20 q 82 7 79 5 q 74 1 67 1 q 54 1 54 13 q 54 21 67 48 q 80 74 96 104 q 112 133 126 160 q 141 187 146 200 z m 232 253 q 254 254 276 254 q 297 254 319 254 q 331 277 344 300 q 358 322 369 346 q 348 346 327 346 q 306 347 285 347 q 282 341 274 326 q 265 311 255 295 q 247 281 241 270 q 235 259 232 253 z"},",":{"x_min":0,"x_max":138,"ha":138,"o":"m -16 -150 q -18 -146 -18 -143 q -18 -135 -10 -116 q -3 -97 8 -72 q 20 -48 34 -22 q 48 5 62 28 q 75 52 86 70 q 98 87 104 94 q 107 98 113 103 q 119 108 126 108 q 134 108 137 102 q 140 96 140 91 q 140 82 132 60 q 123 38 110 10 q 96 -17 80 -46 q 63 -76 47 -100 q 31 -125 17 -140 q 3 -156 -5 -156 l -8 -156 q -11 -156 -13 -154 q -15 -152 -16 -150 z"},"n":{"x_min":0,"x_max":302,"ha":302,"o":"m 59 18 l 59 16 q 59 15 58 15 q 58 15 58 14 q 55 9 50 4 q 45 0 37 0 q 19 0 14 12 q 8 25 8 38 q 8 55 13 74 q 18 93 24 109 q 28 119 38 143 q 49 167 64 196 q 79 226 96 258 q 113 289 130 315 q 148 341 164 358 q 180 375 192 375 q 200 375 203 370 q 206 365 206 360 q 206 350 196 328 q 187 306 176 283 q 169 269 162 256 q 156 243 151 232 q 161 248 172 264 q 183 280 196 296 q 222 328 250 352 q 279 375 308 375 q 332 375 340 359 q 348 343 348 325 q 348 300 339 272 q 330 243 316 214 q 303 185 288 158 q 273 132 262 110 q 253 93 244 75 q 234 57 227 38 q 227 37 226 37 q 226 37 226 36 q 228 38 230 40 q 232 41 235 44 q 240 49 246 56 q 253 62 260 70 q 274 85 285 99 q 296 113 300 117 q 315 137 330 156 q 345 176 359 196 q 367 206 374 216 q 380 227 388 237 q 395 246 405 246 q 418 246 418 234 q 418 229 414 225 q 407 215 393 194 q 379 173 360 148 q 342 123 320 97 q 299 71 278 50 q 258 28 240 14 q 222 0 209 0 q 191 0 184 10 q 176 19 176 35 q 176 51 182 72 q 189 93 199 115 q 208 138 218 158 q 228 179 235 193 q 247 219 258 244 q 270 269 280 295 q 282 300 284 306 q 285 311 287 317 q 292 330 292 338 q 292 340 292 341 q 291 342 291 343 q 290 343 290 344 q 290 344 289 344 q 278 344 258 324 q 239 304 217 275 q 195 247 177 222 q 159 196 153 186 q 127 147 102 104 q 77 62 59 19 z"},"h":{"x_min":0,"x_max":310,"ha":310,"o":"m 66 17 q 66 9 58 4 q 49 0 44 0 q 36 0 32 4 q 27 9 25 14 q 23 19 22 25 q 22 31 22 35 q 22 48 25 64 q 28 81 32 98 q 37 114 42 130 q 47 146 52 158 q 61 181 81 228 q 101 275 128 332 q 156 388 188 448 q 221 507 255 556 q 289 604 322 635 q 355 666 384 666 q 395 666 400 660 q 406 653 406 643 q 406 630 398 610 q 390 590 376 566 q 362 541 344 514 q 326 486 307 458 q 288 429 268 402 q 248 374 230 350 q 213 326 198 307 q 184 288 175 276 q 173 274 170 269 q 168 264 166 259 q 164 253 162 248 q 159 243 157 239 q 155 234 152 228 q 149 223 147 218 q 158 235 172 254 q 185 273 199 291 q 226 324 256 350 q 286 375 315 375 q 339 375 347 359 q 355 343 355 325 q 355 300 346 272 q 337 243 323 214 q 310 185 295 158 q 280 132 269 110 q 260 92 250 74 q 241 57 234 38 q 234 37 234 36 q 233 35 233 34 q 232 32 232 31 q 233 33 243 44 q 253 55 267 70 q 281 85 292 99 q 303 113 307 117 q 323 137 338 156 q 352 175 366 195 q 374 206 380 216 q 387 227 395 237 q 402 246 413 246 q 425 246 425 234 q 425 229 421 225 q 414 215 400 194 q 386 173 368 148 q 349 123 328 97 q 306 71 286 50 q 265 28 247 14 q 229 0 216 0 q 199 0 191 10 q 183 19 183 35 q 183 51 190 72 q 197 93 206 115 q 216 138 226 158 q 235 179 243 193 q 255 219 266 244 q 277 269 287 295 q 289 300 291 306 q 293 311 295 317 q 297 323 298 328 q 299 333 299 338 q 299 342 298 343 q 298 343 296 344 q 286 344 266 324 q 246 304 224 275 q 202 247 184 222 q 166 196 160 186 q 135 148 109 104 q 83 60 66 18 z m 249 424 q 267 449 288 480 q 309 511 328 541 q 346 571 359 596 q 372 621 373 633 q 366 626 346 594 q 326 563 302 520 q 288 494 274 469 q 260 444 249 424 z"},"z":{"x_min":0,"x_max":234,"ha":234,"o":"m 147 43 q 150 28 150 13 q 150 -24 133 -68 q 116 -112 86 -150 q 57 -189 18 -214 q -20 -240 -62 -240 q -85 -240 -102 -230 q -119 -221 -119 -195 q -119 -184 -116 -174 q -114 -165 -111 -156 q -98 -124 -76 -96 q -55 -69 -28 -46 q -14 -34 0 -24 q 14 -13 28 -3 q 42 8 56 17 q 70 26 84 35 q 85 36 85 37 l 85 40 q 85 43 85 48 q 85 52 83 57 q 80 66 75 66 q 62 66 62 78 q 62 86 68 92 q 75 98 83 98 q 94 98 108 110 q 123 122 139 142 q 155 161 171 185 q 187 209 201 232 q 215 256 226 277 q 238 298 244 312 q 222 303 200 296 q 177 290 153 290 q 151 285 146 276 q 140 268 134 259 q 126 247 119 236 q 112 226 110 224 q 108 221 104 218 q 99 215 93 215 q 81 215 81 227 q 81 230 83 234 q 84 236 85 238 q 86 240 88 243 q 91 248 95 254 q 99 259 103 265 q 111 276 118 286 q 124 295 126 300 q 121 305 119 312 q 117 319 117 326 q 117 340 124 358 q 131 376 143 392 q 155 408 170 419 q 186 430 203 430 q 211 430 216 426 q 221 422 221 414 q 221 406 216 394 q 211 382 204 371 q 197 359 190 348 q 184 338 179 331 q 178 329 174 323 q 173 323 173 322 q 194 324 216 331 q 237 338 256 348 q 254 352 254 355 q 254 363 260 369 q 267 375 275 375 q 295 375 303 364 q 311 353 311 337 q 311 326 308 316 q 306 305 302 295 q 292 268 274 236 q 255 205 232 176 q 208 146 182 121 q 155 96 128 82 l 127 82 q 129 80 130 78 q 131 77 133 75 q 135 71 136 70 q 175 95 211 122 q 247 149 278 183 q 284 189 290 196 q 295 202 300 209 q 305 216 310 223 q 315 230 321 237 q 326 246 338 246 q 350 246 350 234 q 350 231 349 229 q 348 227 347 225 q 326 193 304 168 q 281 144 256 124 q 231 103 204 84 q 178 65 147 44 z m 79 -2 q 61 -14 40 -29 q 27 -38 15 -48 q 3 -57 -9 -68 q -33 -89 -52 -112 q -70 -135 -79 -161 q -81 -168 -83 -174 q -85 -181 -85 -187 q -85 -208 -62 -208 q -41 -208 -22 -194 q -3 -181 13 -161 q 29 -141 40 -119 q 52 -97 59 -79 q 66 -59 70 -40 q 75 -22 79 -2 z"},"B":{"x_min":0,"x_max":949,"ha":949,"o":"m 850 158 q 870 137 879 111 q 888 85 888 57 q 888 37 884 16 q 880 -4 873 -24 q 853 -76 816 -121 q 778 -166 730 -199 q 681 -232 624 -251 q 568 -270 510 -270 q 488 -270 462 -266 q 437 -262 415 -252 q 393 -241 378 -223 q 364 -205 364 -177 q 364 -140 385 -104 q 406 -68 439 -40 q 472 -11 512 7 q 551 25 588 25 q 601 25 601 12 q 601 4 594 -3 q 587 -10 578 -10 q 552 -10 526 -26 q 500 -43 480 -68 q 460 -93 448 -122 q 435 -150 435 -174 q 435 -208 460 -221 q 484 -234 517 -234 q 571 -234 624 -207 q 678 -180 720 -137 q 763 -94 790 -41 q 816 12 816 63 q 816 101 798 131 q 770 118 740 110 q 710 101 678 101 q 670 101 660 102 q 651 103 642 106 q 633 110 626 116 q 620 123 620 135 q 620 142 624 152 q 637 185 667 196 q 697 208 729 208 q 750 208 771 204 q 792 199 811 188 q 848 215 884 252 q 920 289 952 332 q 983 374 1008 418 q 1034 463 1049 504 q 1056 523 1062 544 q 1067 566 1067 586 q 1067 605 1060 618 q 1052 630 1032 630 q 1001 630 956 602 q 912 575 862 531 q 812 487 760 433 q 707 379 660 326 q 614 274 576 229 q 539 184 519 158 q 502 124 479 81 q 456 38 428 -6 q 400 -51 366 -94 q 333 -136 294 -169 q 256 -202 214 -222 q 171 -243 124 -243 q 96 -243 70 -236 q 45 -229 26 -214 q 6 -199 -6 -177 q -17 -155 -17 -125 q -17 -84 2 -42 q 21 0 53 34 q 85 67 126 88 q 167 110 212 110 q 229 110 246 106 q 264 102 278 94 q 293 85 302 71 q 311 57 311 37 q 311 23 304 4 q 297 -16 285 -34 q 273 -52 257 -64 q 241 -77 223 -77 q 216 -77 212 -72 q 209 -68 209 -63 q 209 -59 211 -55 q 212 -54 214 -50 q 224 -31 234 -7 q 244 17 244 37 q 244 73 204 73 q 171 73 142 53 q 114 33 93 4 q 72 -26 60 -60 q 48 -95 48 -124 q 48 -162 69 -184 q 90 -207 130 -207 q 160 -207 188 -193 q 215 -179 238 -158 q 262 -136 282 -110 q 301 -85 317 -62 q 345 -20 370 22 q 395 65 418 109 q 441 154 462 198 q 484 242 507 287 q 543 359 580 430 q 616 500 661 568 q 675 588 689 608 q 703 628 720 646 q 726 652 732 658 q 738 664 744 669 q 745 671 746 672 q 747 672 748 673 q 749 673 749 674 q 690 669 622 657 q 555 645 489 624 q 423 602 364 571 q 306 540 266 498 q 232 462 212 414 q 202 386 202 359 q 202 335 214 318 q 225 301 251 301 q 272 301 288 314 q 305 326 318 344 q 330 362 339 383 q 348 404 354 422 q 364 450 369 481 q 370 481 370 482 l 370 483 l 370 484 q 370 492 378 498 q 387 504 394 504 q 414 504 420 488 q 425 472 425 459 q 425 424 410 390 q 396 355 370 328 q 345 300 311 282 q 277 265 239 265 q 194 265 168 290 q 141 315 141 360 q 141 376 144 392 q 148 408 153 423 q 165 453 182 478 q 199 504 223 527 q 257 560 302 587 q 348 614 400 634 q 453 655 510 670 q 568 685 625 694 q 682 704 736 708 q 791 713 838 713 q 851 713 851 700 q 851 692 844 684 q 838 677 828 677 q 808 677 783 649 q 758 621 733 581 q 721 562 710 542 q 699 523 690 506 q 681 488 674 474 q 667 459 663 451 q 649 422 635 393 q 621 364 607 335 q 595 309 581 283 q 606 313 642 353 q 677 393 718 436 q 759 478 804 519 q 848 560 892 592 q 936 625 977 645 q 1018 665 1053 665 q 1098 665 1118 638 q 1137 610 1137 572 q 1137 547 1131 522 q 1125 497 1117 474 q 1100 428 1072 383 q 1044 338 1010 297 q 975 256 934 221 q 894 186 851 159 z m 766 161 q 745 173 718 173 q 711 173 701 172 q 691 171 681 167 q 659 161 659 147 q 659 142 667 139 q 671 137 676 137 q 680 137 683 137 q 705 137 726 144 q 746 150 766 161 z"},"K":{"x_min":0,"x_max":860,"ha":860,"o":"m 670 -207 l 673 -207 q 677 -208 681 -210 q 685 -212 685 -219 q 685 -229 677 -236 q 669 -242 660 -242 q 637 -242 627 -230 q 617 -219 617 -199 q 617 -188 620 -176 q 622 -165 625 -154 q 628 -142 632 -131 q 636 -120 640 -110 q 647 -90 656 -68 q 664 -45 671 -22 q 679 1 684 24 q 688 47 688 67 q 688 100 674 120 q 661 141 639 152 q 617 164 588 168 q 560 172 531 172 q 514 138 490 94 q 467 49 438 3 q 409 -43 375 -87 q 341 -131 302 -166 q 263 -201 219 -222 q 175 -243 128 -243 q 100 -243 74 -236 q 49 -229 30 -214 q 10 -199 -2 -177 q -13 -155 -13 -125 q -13 -84 6 -42 q 25 0 57 34 q 89 67 130 88 q 171 110 216 110 q 233 110 250 106 q 268 102 282 94 q 297 85 306 71 q 315 57 315 37 q 315 23 308 4 q 301 -16 289 -34 q 277 -52 261 -64 q 245 -77 227 -77 q 220 -77 216 -72 q 213 -68 213 -63 q 213 -59 215 -55 q 216 -54 218 -50 q 228 -31 238 -7 q 248 17 248 37 q 248 73 208 73 q 175 73 146 53 q 118 33 97 3 q 76 -27 64 -62 q 52 -96 52 -124 q 52 -162 73 -184 q 94 -207 134 -207 q 164 -207 192 -193 q 219 -179 242 -158 q 266 -136 286 -110 q 305 -85 321 -62 q 349 -20 374 22 q 399 65 422 109 q 445 154 466 198 q 488 242 511 287 q 547 359 584 430 q 620 500 665 568 q 679 588 693 608 q 707 627 724 646 q 729 651 734 656 q 738 660 743 665 q 747 669 750 671 l 753 674 q 695 669 627 657 q 559 645 493 624 q 427 602 368 571 q 310 540 270 498 q 236 462 216 414 q 206 386 206 359 q 206 335 218 318 q 229 301 255 301 q 277 301 294 314 q 310 326 322 344 q 334 362 343 383 q 352 404 358 422 q 368 450 373 481 q 374 481 374 482 l 374 483 l 374 484 q 374 492 382 498 q 391 504 398 504 q 418 504 424 488 q 429 472 429 459 q 429 424 414 390 q 400 355 374 328 q 349 300 315 282 q 281 265 243 265 q 198 265 172 290 q 145 315 145 360 q 145 376 148 392 q 152 409 157 423 q 181 482 227 527 q 261 560 306 587 q 352 614 404 634 q 457 655 514 670 q 572 685 629 694 q 686 704 740 708 q 795 713 842 713 q 855 713 855 700 q 855 692 848 684 q 842 677 832 677 q 812 677 787 649 q 762 621 737 581 q 725 562 714 542 q 703 523 694 506 q 685 488 678 474 q 671 459 667 451 q 653 422 639 393 q 625 364 611 335 q 596 305 581 274 q 566 244 552 213 q 585 221 622 238 q 659 254 695 274 q 731 295 764 317 q 798 339 825 359 q 856 382 889 410 q 922 438 953 470 q 984 501 1011 534 q 1038 568 1058 601 q 1064 610 1068 619 q 1073 628 1078 637 q 1080 642 1082 646 q 1083 650 1085 654 q 1088 661 1094 666 q 1099 672 1109 672 q 1122 672 1122 659 q 1122 657 1120 651 q 1102 601 1072 550 q 1043 500 1006 453 q 970 406 928 364 q 885 323 841 291 q 794 257 742 232 q 689 207 632 193 q 687 179 720 148 q 753 116 753 56 q 753 23 744 -8 q 736 -39 724 -68 q 712 -98 698 -127 q 685 -156 674 -186 q 673 -188 671 -196 q 668 -202 668 -205 q 668 -206 669 -206 z"},"R":{"x_min":0,"x_max":938,"ha":938,"o":"m 803 151 q 814 123 814 89 q 814 66 810 41 q 806 16 800 -9 q 794 -34 786 -58 q 779 -81 771 -104 q 769 -112 765 -124 q 761 -136 757 -150 q 753 -163 750 -174 q 748 -186 748 -194 q 748 -202 750 -204 q 750 -205 755 -206 q 757 -206 759 -207 q 762 -207 763 -208 q 768 -212 768 -219 q 768 -228 760 -235 q 752 -242 744 -242 q 712 -242 700 -226 q 688 -209 688 -182 q 688 -165 690 -149 q 693 -133 697 -116 q 701 -100 706 -84 q 710 -68 714 -53 q 719 -34 724 -16 q 730 3 735 23 q 740 43 742 62 q 745 81 745 100 q 745 115 742 130 q 708 121 674 116 q 639 111 604 111 q 590 111 578 118 q 565 124 565 141 q 565 159 576 174 q 586 188 602 198 q 617 209 635 215 q 653 221 669 221 q 698 221 726 214 q 755 208 778 188 q 824 212 864 246 q 905 280 938 320 q 971 361 997 406 q 1023 452 1040 499 q 1048 519 1054 544 q 1061 568 1061 589 q 1061 606 1054 618 q 1047 630 1028 630 q 997 630 954 603 q 910 576 860 534 q 811 491 760 438 q 709 386 664 334 q 618 283 582 239 q 545 195 526 169 q 508 135 485 91 q 462 47 433 1 q 404 -45 370 -89 q 336 -133 297 -167 q 258 -201 214 -222 q 171 -243 124 -243 q 96 -243 70 -236 q 45 -229 26 -214 q 6 -199 -6 -177 q -17 -155 -17 -125 q -17 -84 2 -42 q 21 0 53 34 q 85 67 126 88 q 167 110 212 110 q 229 110 246 106 q 264 102 278 94 q 293 85 302 71 q 311 57 311 37 q 311 23 304 4 q 297 -16 285 -34 q 273 -52 257 -64 q 241 -77 223 -77 q 216 -77 212 -72 q 209 -68 209 -63 q 209 -59 211 -55 q 212 -54 214 -50 q 224 -31 234 -7 q 244 17 244 37 q 244 73 204 73 q 171 73 142 53 q 114 33 93 3 q 72 -27 60 -62 q 48 -96 48 -124 q 48 -162 69 -184 q 90 -207 130 -207 q 160 -207 188 -193 q 215 -179 238 -158 q 262 -136 282 -110 q 301 -85 317 -62 q 345 -20 370 22 q 395 65 418 109 q 441 154 462 198 q 484 242 507 287 q 543 359 580 430 q 616 500 661 568 q 675 589 690 610 q 705 630 722 648 q 724 650 726 652 q 728 654 730 656 q 735 661 738 663 q 746 669 749 674 q 691 669 623 657 q 555 645 489 624 q 423 602 364 571 q 306 540 266 498 q 232 462 212 414 q 202 386 202 359 q 202 335 214 318 q 225 301 251 301 q 272 301 288 314 q 305 326 318 344 q 330 362 339 383 q 348 404 354 422 q 364 450 369 481 q 370 481 370 482 l 370 483 l 370 484 q 370 492 378 498 q 387 504 394 504 q 414 504 420 488 q 425 472 425 459 q 425 424 410 390 q 396 355 370 328 q 345 300 311 282 q 277 265 239 265 q 194 265 168 290 q 141 315 141 360 q 141 376 144 392 q 148 409 153 423 q 165 453 182 478 q 199 504 223 527 q 257 560 302 587 q 348 614 400 634 q 453 655 510 670 q 568 685 625 694 q 682 704 736 708 q 791 713 838 713 q 851 713 851 700 q 851 692 844 684 q 838 677 828 677 q 808 677 783 649 q 758 621 733 581 q 721 562 710 542 q 699 523 690 506 q 681 488 674 474 q 667 459 663 451 q 649 422 635 393 q 621 364 607 335 q 605 330 600 320 q 594 310 589 299 q 587 297 586 294 q 586 292 584 289 q 609 319 644 358 q 678 398 718 440 q 758 481 802 522 q 846 562 890 594 q 933 626 974 646 q 1016 665 1051 665 q 1094 665 1112 640 q 1131 615 1131 577 q 1131 551 1124 524 q 1118 498 1109 474 q 1089 421 1059 372 q 1029 324 990 283 q 951 242 904 208 q 857 175 804 152 z m 723 165 q 710 177 693 182 q 676 186 658 186 q 650 186 640 184 q 631 181 622 176 q 614 172 608 166 q 602 159 602 152 q 602 149 605 148 q 608 147 614 147 q 670 147 723 165 z"},"T":{"x_min":0,"x_max":670,"ha":670,"o":"m 612 343 q 580 329 543 316 q 506 303 467 293 q 428 283 390 277 q 351 271 316 271 q 290 271 260 276 q 231 281 206 293 q 181 305 164 326 q 148 348 148 381 q 148 409 159 436 q 171 469 194 500 q 218 532 248 556 q 279 580 316 594 q 352 609 390 609 q 428 609 456 590 q 484 572 484 530 q 484 505 474 477 q 470 466 461 448 q 452 430 440 413 q 428 396 413 384 q 398 371 382 371 q 376 371 372 373 q 365 375 365 382 q 365 387 369 393 q 370 395 371 397 q 372 399 373 401 q 380 415 388 432 q 396 448 402 466 q 409 483 414 500 q 418 518 418 533 q 418 573 380 573 q 351 573 322 554 q 292 534 268 505 q 244 476 229 444 q 214 411 214 384 q 214 361 224 346 q 234 332 250 323 q 265 314 285 310 q 305 307 326 307 q 361 307 402 314 q 443 320 484 332 q 525 343 564 357 q 602 371 634 386 q 644 407 660 439 q 677 471 698 508 q 719 544 744 580 q 770 617 797 646 q 824 676 853 694 q 882 713 910 713 q 934 713 950 700 q 967 688 967 662 q 967 625 938 586 q 909 546 868 509 q 828 472 784 442 q 741 412 712 395 q 709 386 702 372 q 698 365 695 358 q 692 352 690 347 q 666 297 642 248 q 619 198 593 149 q 567 99 540 52 q 512 4 480 -42 q 457 -75 428 -110 q 399 -144 364 -172 q 330 -201 290 -219 q 250 -237 204 -237 q 177 -237 152 -230 q 126 -223 106 -208 q 87 -194 75 -172 q 63 -150 63 -120 q 63 -79 82 -37 q 101 5 133 38 q 165 72 206 94 q 248 115 293 115 q 309 115 326 112 q 344 108 358 100 q 373 91 382 77 q 391 63 391 43 q 391 27 384 8 q 381 -1 374 -14 q 366 -28 356 -40 q 345 -53 332 -62 q 320 -71 307 -71 q 302 -71 295 -68 q 288 -66 288 -58 l 288 -56 l 289 -55 q 289 -54 290 -54 q 290 -53 290 -51 q 291 -49 292 -47 q 293 -45 294 -43 q 297 -38 300 -32 q 303 -26 307 -18 q 314 -4 319 12 q 324 28 324 42 q 324 79 284 79 q 251 79 222 59 q 194 39 172 9 q 151 -21 139 -56 q 127 -90 127 -118 q 127 -156 148 -178 q 170 -201 209 -201 q 240 -201 267 -187 q 294 -173 318 -152 q 341 -130 360 -104 q 380 -79 396 -56 q 422 -19 444 20 q 467 58 488 98 q 510 138 530 178 q 549 218 569 259 q 580 280 590 301 q 601 322 612 343 z m 738 449 q 762 467 788 490 q 814 512 837 538 q 860 563 878 590 q 897 618 906 645 q 908 651 910 657 q 912 663 912 668 q 912 678 903 678 q 886 678 866 658 q 847 639 827 610 q 808 582 793 554 q 778 527 771 513 q 763 497 754 482 q 746 466 738 449 z"},"P":{"x_min":0,"x_max":994,"ha":994,"o":"m 523 164 q 505 130 482 86 q 459 43 430 -2 q 402 -48 368 -91 q 334 -134 296 -168 q 257 -202 214 -222 q 171 -243 124 -243 q 96 -243 70 -236 q 45 -229 26 -214 q 6 -199 -6 -177 q -17 -155 -17 -125 q -17 -84 2 -42 q 21 0 53 34 q 85 67 126 88 q 167 110 212 110 q 229 110 246 106 q 264 102 278 94 q 293 85 302 71 q 311 57 311 37 q 311 23 304 4 q 297 -16 285 -34 q 273 -52 257 -64 q 241 -77 223 -77 q 216 -77 212 -72 q 209 -68 209 -63 q 209 -59 211 -55 q 212 -54 214 -50 q 224 -31 234 -7 q 244 17 244 37 q 244 73 204 73 q 171 73 142 53 q 114 33 93 3 q 72 -27 60 -62 q 48 -96 48 -124 q 48 -162 69 -184 q 90 -207 130 -207 q 160 -207 188 -193 q 215 -179 238 -158 q 262 -136 282 -110 q 301 -85 317 -62 q 345 -20 370 22 q 395 65 418 109 q 441 154 462 198 q 484 242 507 287 q 543 359 580 430 q 616 500 661 568 q 674 588 688 607 q 701 626 718 643 q 724 650 730 656 q 736 663 743 669 q 745 670 746 671 q 746 672 748 673 q 748 673 749 674 q 690 669 622 657 q 555 645 489 624 q 423 602 364 571 q 306 540 266 498 q 232 462 212 414 q 202 386 202 359 q 202 335 214 318 q 225 301 251 301 q 272 301 288 314 q 305 326 318 344 q 330 362 339 383 q 348 404 354 422 q 364 450 369 481 q 370 481 370 482 l 370 483 l 370 484 q 370 492 378 498 q 387 504 394 504 q 414 504 420 488 q 425 472 425 459 q 425 424 410 390 q 396 355 370 328 q 345 300 311 282 q 277 265 239 265 q 194 265 168 290 q 141 315 141 360 q 141 376 144 392 q 148 408 153 423 q 165 453 182 478 q 199 504 223 527 q 257 560 302 587 q 348 614 400 634 q 453 655 510 670 q 568 685 625 694 q 682 704 736 708 q 791 713 838 713 q 851 713 851 700 q 851 692 844 684 q 838 677 828 677 q 808 677 783 649 q 758 621 733 581 q 721 562 710 542 q 699 523 690 506 q 681 488 674 474 q 667 459 663 451 q 649 422 635 393 q 621 364 607 335 l 583 286 q 581 282 578 276 q 575 271 572 265 q 598 294 635 336 q 672 377 715 421 q 758 465 805 508 q 852 552 898 586 q 944 621 986 642 q 1028 664 1062 664 q 1087 664 1104 654 q 1120 644 1130 628 q 1140 611 1144 591 q 1147 571 1147 552 q 1147 512 1137 470 q 1127 427 1113 390 q 1097 349 1078 311 q 1060 273 1036 236 q 1004 186 961 138 q 918 90 866 52 q 814 15 754 -8 q 694 -30 628 -30 q 607 -30 582 -26 q 558 -23 537 -14 q 516 -4 502 14 q 487 31 487 58 q 487 93 506 128 q 526 162 557 190 q 588 217 625 234 q 662 251 698 251 q 703 251 706 248 q 710 245 710 239 q 710 231 704 226 q 697 220 689 220 q 665 220 640 203 q 614 186 594 162 q 573 137 560 108 q 547 80 547 58 q 547 41 554 30 q 562 20 574 13 q 586 6 601 4 q 616 1 631 1 q 683 1 732 24 q 781 47 824 83 q 866 119 901 162 q 936 206 961 246 q 987 287 1007 329 q 1027 371 1044 416 q 1057 450 1068 493 q 1079 536 1079 571 q 1079 593 1072 613 q 1064 633 1040 633 q 1012 633 968 605 q 925 577 874 533 q 823 489 769 434 q 715 380 667 328 q 619 276 580 232 q 542 188 523 164 z"},"|":{"x_min":0,"x_max":167,"ha":167,"o":"m 35 -148 q 27 -148 24 -144 q 21 -139 21 -133 q 21 -126 26 -106 q 32 -87 41 -60 q 50 -32 62 2 q 74 36 86 71 q 99 107 112 142 q 124 177 135 207 q 146 237 154 260 q 163 282 167 293 l 186 344 q 206 400 226 456 q 247 511 270 567 q 272 571 275 579 q 278 587 282 596 q 286 605 290 613 q 294 621 296 624 q 297 626 298 627 q 299 628 300 630 q 302 632 303 632 q 304 633 306 635 q 314 641 321 641 q 325 641 326 638 q 328 636 328 634 q 329 633 329 631 l 329 628 q 329 617 324 596 q 320 576 312 550 q 305 523 294 492 q 284 461 273 429 q 262 397 251 366 q 240 334 230 306 q 219 279 210 256 q 202 234 197 221 q 179 171 160 122 q 142 73 123 23 q 112 -6 102 -35 q 91 -64 79 -93 q 77 -98 72 -107 q 68 -116 63 -125 q 58 -133 50 -140 q 43 -148 35 -148 z"},"t":{"x_min":0,"x_max":137,"ha":137,"o":"m 199 533 q 187 533 187 545 q 187 553 194 558 q 200 564 208 564 l 255 564 q 258 570 266 583 q 274 596 283 610 q 292 624 300 636 q 309 647 312 651 q 316 656 322 661 q 329 666 337 666 q 344 666 347 662 q 350 657 350 652 q 350 642 345 630 q 340 618 334 605 q 331 598 328 592 q 325 586 322 580 q 320 575 318 572 q 317 568 315 564 l 361 564 q 373 564 373 553 q 373 545 366 539 q 360 533 352 533 l 301 533 q 283 492 262 452 q 241 411 221 371 q 218 365 210 348 q 201 331 189 307 q 177 283 163 254 q 149 225 134 195 q 119 165 106 136 q 92 108 82 86 q 71 63 64 48 q 58 33 58 30 q 59 32 70 43 q 81 54 95 70 q 109 85 121 98 q 133 112 136 117 q 152 137 167 157 q 182 177 197 197 q 200 202 204 207 q 207 212 210 217 q 214 222 218 227 q 221 232 225 237 q 230 246 242 246 q 254 246 254 234 q 254 231 253 229 q 252 227 251 225 q 244 215 230 194 q 215 173 196 148 q 178 123 156 96 q 135 70 114 48 q 94 27 75 14 q 56 0 43 0 q 27 0 22 10 q 18 21 18 31 q 18 43 21 58 q 24 72 28 88 q 33 103 38 117 q 43 131 47 142 q 77 223 114 300 q 151 377 192 453 q 203 473 214 493 q 225 513 236 533 z"},"M":{"x_min":0,"x_max":1100,"ha":1100,"o":"m 370 484 q 370 492 378 498 q 387 504 394 504 q 414 504 420 488 q 425 472 425 459 q 425 424 410 390 q 396 355 370 328 q 345 300 311 282 q 277 265 239 265 q 194 265 168 290 q 141 315 141 360 q 141 376 144 392 q 148 408 153 423 q 165 453 182 478 q 199 504 223 527 q 257 560 302 587 q 348 614 400 634 q 453 655 510 670 q 568 685 625 694 q 682 704 736 708 q 791 713 838 713 q 868 713 885 696 q 902 679 910 655 q 919 631 922 604 q 924 578 924 559 q 924 490 909 415 q 894 340 873 274 q 974 370 1078 458 q 1181 546 1292 632 q 1308 644 1325 654 q 1342 665 1365 665 q 1370 665 1374 662 q 1379 659 1379 653 q 1379 644 1372 637 q 1364 630 1355 630 q 1348 630 1338 621 q 1327 612 1314 596 q 1302 580 1288 560 q 1274 539 1260 516 q 1246 493 1234 470 q 1221 448 1210 428 q 1200 409 1192 394 q 1184 380 1181 374 q 1162 339 1144 304 q 1126 270 1107 235 q 1097 216 1078 180 q 1060 144 1038 100 q 1017 56 995 8 q 973 -40 954 -83 q 936 -126 924 -160 q 913 -194 913 -211 q 913 -217 915 -219 q 916 -220 919 -220 q 920 -221 922 -221 q 924 -221 926 -223 q 931 -226 931 -233 q 931 -241 923 -248 q 915 -256 907 -256 q 876 -256 866 -236 q 856 -216 856 -193 q 856 -161 866 -122 q 877 -84 888 -54 q 907 -3 930 47 q 953 97 978 147 q 1015 220 1054 291 q 1093 362 1137 432 q 1150 452 1163 472 q 1176 493 1189 513 q 1133 465 1078 418 q 1024 371 970 321 q 926 283 886 243 q 877 235 868 226 q 859 218 851 210 q 844 191 830 159 q 817 127 800 90 q 782 54 760 16 q 738 -21 713 -51 q 688 -81 662 -100 q 635 -119 607 -119 q 593 -119 584 -113 q 574 -107 574 -92 q 574 -80 580 -66 q 586 -51 596 -34 q 605 -18 618 0 q 631 17 645 34 q 674 69 702 100 q 731 130 745 147 q 786 265 820 389 q 828 420 838 458 q 848 495 853 526 q 855 545 857 563 q 859 581 859 600 q 859 608 858 621 q 857 634 854 647 q 850 661 844 669 q 839 677 828 677 q 808 677 783 649 q 758 621 733 581 q 721 562 710 542 q 699 523 690 506 q 681 488 674 474 q 667 459 663 451 q 649 422 635 393 q 621 364 607 335 q 584 286 560 238 q 537 189 511 140 q 485 92 458 45 q 431 -2 400 -47 q 377 -80 348 -115 q 320 -150 286 -178 q 251 -207 210 -225 q 170 -243 124 -243 q 96 -243 70 -236 q 45 -229 26 -214 q 6 -199 -6 -177 q -17 -155 -17 -125 q -17 -84 2 -42 q 21 0 53 34 q 85 67 126 88 q 167 110 212 110 q 229 110 246 106 q 264 102 278 94 q 293 85 302 71 q 311 57 311 37 q 311 23 304 4 q 297 -16 285 -34 q 273 -52 257 -64 q 241 -77 223 -77 q 216 -77 212 -72 q 209 -68 209 -63 q 209 -59 211 -55 q 212 -54 214 -50 q 224 -31 234 -7 q 244 17 244 37 q 244 73 204 73 q 171 73 142 53 q 114 33 93 3 q 72 -27 60 -62 q 48 -96 48 -124 q 48 -162 69 -184 q 90 -207 130 -207 q 160 -207 188 -193 q 215 -179 238 -158 q 262 -136 282 -110 q 301 -85 317 -62 q 345 -20 370 22 q 395 65 418 109 q 441 154 462 198 q 484 242 507 287 q 543 359 580 430 q 616 500 661 568 q 674 588 688 607 q 701 626 718 643 q 724 650 730 656 q 736 663 743 669 q 745 670 746 671 q 746 672 748 673 q 748 673 749 674 q 704 670 652 662 q 599 654 545 640 q 491 625 438 604 q 386 584 341 556 q 296 529 262 494 q 229 458 212 414 q 202 386 202 359 q 202 335 214 318 q 225 301 251 301 q 272 301 288 314 q 305 326 318 344 q 330 362 339 383 q 348 404 354 422 q 364 450 369 481 q 370 481 370 482 l 370 483 z m 611 -83 q 611 -83 613 -84 q 627 -84 644 -62 q 661 -41 678 -11 q 689 10 698 30 q 708 51 715 67 q 702 52 684 30 q 666 9 650 -13 q 634 -35 622 -54 q 611 -73 611 -83 z"},"g":{"x_min":0,"x_max":298,"ha":298,"o":"m 240 64 q 230 45 214 15 q 197 -15 175 -49 q 153 -83 128 -118 q 102 -152 74 -180 q 47 -207 19 -224 q -9 -242 -35 -242 q -54 -242 -66 -233 q -78 -224 -78 -204 q -78 -194 -76 -186 q -74 -177 -71 -169 q -57 -131 -30 -99 q -4 -67 30 -40 q 47 -26 64 -14 q 82 -2 100 10 q 117 21 134 31 q 151 41 168 51 q 169 54 173 62 q 176 69 181 75 l 182 77 q 165 60 144 49 q 122 38 96 38 q 64 38 50 56 q 36 74 36 103 q 36 138 56 185 q 77 232 110 274 q 143 316 184 346 q 224 375 264 375 q 311 375 319 335 q 319 335 321 339 q 323 343 326 346 q 329 350 332 355 q 338 363 346 369 q 354 375 363 375 q 370 375 373 370 q 376 366 376 361 q 376 359 374 353 q 352 291 324 232 q 296 174 267 115 q 314 150 353 195 q 361 205 368 216 q 376 226 384 237 q 391 246 402 246 q 414 246 414 234 q 414 229 410 225 q 376 174 334 136 q 292 98 240 64 z m 142 2 q 131 -5 120 -12 q 108 -19 96 -27 q 68 -45 40 -68 q 13 -91 -8 -116 q -29 -142 -40 -173 q -45 -186 -45 -195 q -45 -211 -27 -211 q -10 -211 14 -186 q 39 -160 64 -125 q 88 -90 110 -54 q 131 -19 142 2 z m 115 69 q 133 69 158 92 q 183 116 207 148 q 231 179 250 211 q 270 243 276 259 q 281 271 284 286 q 287 300 287 312 q 287 325 282 334 q 278 344 265 344 q 249 344 231 330 q 213 315 194 292 q 176 269 159 240 q 142 212 129 184 q 116 156 108 131 q 100 106 100 91 q 100 82 104 76 q 107 69 115 69 z"},"j":{"x_min":0,"x_max":120,"ha":120,"o":"m 212 419 q 199 419 192 427 q 186 435 186 446 q 186 455 190 465 q 195 475 202 483 q 210 491 220 496 q 229 501 239 501 q 252 501 259 493 q 266 485 266 474 q 266 465 262 455 q 257 445 250 437 q 242 429 232 424 q 222 419 212 419 z m 69 68 q 68 66 67 64 q 66 61 65 59 q 61 53 60 50 q 54 39 45 20 q 36 2 24 -20 q 12 -43 -2 -68 q -17 -93 -32 -117 q -47 -141 -64 -164 q -80 -187 -96 -204 q -113 -221 -130 -232 q -146 -242 -161 -242 q -173 -242 -173 -231 q -173 -227 -172 -225 q -169 -220 -164 -216 q -160 -211 -152 -211 q -150 -211 -147 -208 q -143 -205 -138 -199 q -129 -188 -117 -170 q -106 -153 -98 -138 q -89 -123 -87 -118 q -57 -64 -32 -9 q -6 46 20 101 q 41 147 62 192 q 84 238 108 283 q 116 299 125 314 q 134 330 145 345 q 151 353 162 364 q 174 375 188 375 q 193 375 196 372 q 200 369 200 364 q 200 361 196 349 q 191 337 184 320 q 176 302 166 280 q 157 259 147 237 q 131 201 116 168 q 100 134 92 117 q 115 134 136 154 q 157 174 176 196 q 184 206 192 216 q 199 227 207 237 q 212 246 224 246 q 236 246 236 234 q 236 231 235 229 q 234 227 233 225 q 199 175 159 138 q 119 102 69 68 z"},"i":{"x_min":0,"x_max":133,"ha":133,"o":"m 55 36 q 57 38 59 40 q 61 41 63 43 q 69 48 76 55 q 82 62 90 70 q 104 85 116 99 q 127 113 131 117 q 146 136 160 155 q 175 174 189 194 q 197 205 204 216 q 211 227 219 237 q 226 246 236 246 q 248 246 248 234 q 248 228 245 225 q 238 215 224 194 q 209 173 190 148 q 172 123 150 96 q 129 70 108 48 q 88 27 69 14 q 50 0 37 0 q 20 0 14 12 q 8 23 8 36 q 8 53 14 73 q 19 93 25 109 q 29 119 40 143 q 50 167 64 196 q 79 226 96 258 q 113 289 130 315 q 148 341 164 358 q 180 375 192 375 q 200 375 203 370 q 206 365 206 360 q 206 353 200 338 q 195 322 186 302 q 176 282 164 258 q 152 233 139 208 q 125 182 112 158 q 99 133 88 110 q 77 87 68 68 q 60 50 56 39 q 55 39 55 38 z m 225 419 q 212 419 206 427 q 199 435 199 446 q 199 455 204 465 q 208 475 216 483 q 223 491 232 496 q 242 501 252 501 q 265 501 272 493 q 279 485 279 474 q 279 465 274 455 q 270 445 262 437 q 255 429 245 424 q 235 419 225 419 z"},"y":{"x_min":0,"x_max":282,"ha":282,"o":"m 223 64 q 213 45 196 15 q 180 -15 158 -49 q 136 -83 110 -118 q 85 -152 58 -180 q 31 -207 3 -224 q -25 -242 -51 -242 q -71 -242 -83 -233 q -95 -224 -95 -204 q -95 -194 -93 -186 q -91 -177 -88 -169 q -74 -131 -47 -99 q -20 -67 13 -40 q 30 -26 48 -14 q 65 -2 83 10 q 100 21 117 31 q 134 41 151 51 q 153 53 154 56 q 155 60 157 63 q 160 68 163 73 q 166 78 169 83 l 175 95 q 156 77 131 62 q 106 46 81 46 q 55 46 44 60 q 34 74 34 96 q 34 110 37 124 q 40 138 45 151 q 48 161 57 182 q 66 202 78 226 q 91 251 106 278 q 121 304 136 326 q 151 347 166 361 q 181 375 193 375 q 201 375 204 370 q 207 365 207 360 q 207 351 202 337 q 196 323 188 306 q 180 289 170 270 q 160 250 149 230 q 127 189 110 151 q 92 113 92 89 q 92 79 98 79 q 111 79 132 96 q 154 114 176 138 q 197 161 215 185 q 233 209 240 221 q 253 244 264 267 q 276 290 289 313 q 292 319 298 329 q 304 339 311 349 q 319 359 328 367 q 336 375 346 375 q 353 375 356 370 q 359 366 359 361 q 359 359 357 353 q 336 291 308 232 q 279 174 250 115 q 300 152 338 198 q 346 207 353 217 q 360 227 368 237 q 373 246 385 246 q 397 246 397 234 q 397 231 396 229 q 395 227 394 225 q 359 174 317 136 q 275 98 224 64 z m 125 2 q 114 -5 102 -12 q 91 -19 80 -27 q 52 -44 23 -68 q -4 -91 -25 -116 q -46 -142 -57 -173 q -62 -186 -62 -195 q -62 -211 -44 -211 q -27 -211 -2 -186 q 22 -160 46 -125 q 71 -90 92 -54 q 114 -19 125 2 z"},"@":{"x_min":0,"x_max":519,"ha":519,"o":"m 99 86 q 99 111 104 135 q 110 159 118 182 q 137 233 172 287 q 208 341 256 385 q 303 429 360 457 q 417 485 479 485 q 536 485 566 455 q 595 425 595 371 q 595 345 590 320 q 584 296 575 273 q 557 222 522 168 q 486 115 438 72 q 391 28 334 0 q 278 -28 217 -28 q 159 -28 129 2 q 99 32 99 86 z m 365 59 q 354 63 352 73 q 349 83 349 91 q 349 97 350 106 q 351 114 353 122 q 334 99 308 78 q 282 57 250 57 q 221 57 210 75 q 198 93 198 117 q 198 139 207 168 q 216 198 232 230 q 247 261 268 291 q 290 321 314 344 q 339 368 366 382 q 392 397 418 397 q 441 397 453 386 q 465 375 467 356 q 471 361 474 366 q 478 371 483 376 q 490 384 498 390 q 507 397 515 397 q 528 397 528 384 q 528 378 523 364 q 518 350 510 332 q 501 313 490 291 q 480 269 468 246 q 456 223 444 200 q 432 176 422 156 q 411 135 404 118 q 396 101 392 91 l 392 90 q 392 91 392 91 q 393 91 393 92 q 397 95 401 99 q 405 103 410 107 q 418 116 426 124 q 433 132 435 134 q 453 155 470 186 q 488 216 502 249 q 516 282 524 316 q 533 349 533 376 q 533 410 518 432 q 503 454 466 454 q 430 454 394 436 q 358 417 325 386 q 292 356 264 316 q 235 277 214 236 q 193 194 181 154 q 169 114 169 81 q 169 47 184 24 q 199 2 236 2 q 267 2 296 14 q 324 27 348 46 q 350 47 358 53 q 360 55 361 56 q 362 56 363 57 z m 258 90 q 261 85 267 85 q 278 85 293 98 q 308 110 324 130 q 341 149 358 172 q 374 196 388 219 q 402 242 412 262 q 422 281 426 292 q 431 303 434 317 q 437 331 437 342 q 437 353 434 361 q 430 369 419 369 q 404 369 386 354 q 369 338 350 314 q 332 289 315 258 q 298 228 285 198 q 272 169 264 144 q 256 118 256 103 q 256 98 258 90 z"},".":{"x_min":0,"x_max":150,"ha":150,"o":"m 66 0 q 53 0 46 8 q 40 16 40 27 q 40 46 56 64 q 73 82 94 82 q 106 82 113 74 q 120 66 120 55 q 120 46 116 36 q 111 26 104 18 q 96 10 86 5 q 76 0 66 0 z"},"p":{"x_min":0,"x_max":302,"ha":302,"o":"m 50 32 q 42 15 28 -12 q 13 -39 -4 -70 q -22 -100 -42 -131 q -62 -162 -82 -186 q -103 -211 -124 -226 q -144 -242 -162 -242 q -174 -242 -174 -231 q -174 -227 -173 -225 q -170 -220 -166 -216 q -161 -211 -153 -211 q -151 -211 -148 -208 q -144 -205 -139 -199 q -130 -188 -118 -170 q -107 -153 -98 -138 q -90 -123 -87 -118 q -58 -64 -32 -9 q -7 46 19 101 q 40 147 62 192 q 83 238 107 283 q 116 299 124 314 q 133 330 144 345 q 150 353 162 364 q 173 375 187 375 q 192 375 196 372 q 199 369 199 364 q 199 359 194 347 q 189 335 184 323 q 182 320 181 316 q 180 313 178 310 q 198 334 225 354 q 252 375 285 375 q 317 375 330 355 q 342 335 342 309 q 342 289 338 270 q 333 250 327 232 q 313 197 292 160 q 271 124 247 94 l 223 67 q 221 65 221 65 q 259 88 292 120 q 325 152 352 187 q 361 199 370 212 q 378 225 388 237 q 393 246 405 246 q 417 246 417 234 q 417 231 416 229 q 415 227 414 225 q 387 186 354 146 q 322 106 282 74 q 242 41 196 20 q 150 0 96 0 q 79 0 67 9 q 55 18 50 32 z m 100 31 q 122 31 148 58 q 173 86 196 124 q 220 161 238 198 q 256 236 263 256 q 269 270 274 288 q 279 307 279 322 q 279 331 276 338 q 273 344 265 344 q 251 344 234 330 q 218 316 200 294 q 183 272 166 245 q 148 218 132 192 q 117 166 106 144 q 94 121 88 109 q 84 102 82 86 q 79 71 79 62 q 79 50 84 40 q 88 31 100 31 z"},"X":{"x_min":0,"x_max":786,"ha":786,"o":"m 573 182 q 577 200 580 218 q 582 236 585 254 q 592 300 598 346 q 603 391 603 438 q 603 474 598 509 q 592 544 577 572 q 562 599 534 616 q 507 633 463 633 q 424 633 390 618 q 356 602 328 577 q 301 552 280 520 q 259 488 247 455 q 241 438 238 422 q 234 406 234 389 q 234 360 248 342 q 262 323 294 323 q 313 323 330 334 q 347 345 361 361 q 375 377 385 396 q 395 415 401 432 q 407 449 412 466 q 416 482 420 499 q 421 501 421 502 q 421 504 422 506 q 422 509 424 513 q 430 526 447 526 q 457 526 463 522 q 469 517 472 511 q 475 505 476 498 q 477 491 477 485 q 477 468 473 450 q 469 433 463 418 q 453 390 435 366 q 417 343 394 326 q 371 308 342 298 q 314 288 283 288 q 233 288 200 312 q 167 336 167 387 q 167 404 170 420 q 174 436 180 451 q 196 497 225 536 q 254 576 292 606 q 331 635 378 652 q 424 669 476 669 q 537 669 578 650 q 619 632 644 599 q 668 566 678 522 q 688 477 688 425 q 688 399 686 372 q 684 345 680 319 q 706 352 732 384 q 758 416 785 448 q 808 475 842 513 q 876 551 916 586 q 957 620 1000 644 q 1043 669 1084 669 q 1089 669 1093 666 q 1097 664 1097 658 q 1097 650 1090 642 q 1083 633 1073 633 q 1044 633 1008 607 q 973 581 938 545 q 903 508 874 471 q 845 434 829 412 q 806 383 784 354 q 762 324 740 294 q 726 277 714 259 q 701 241 687 224 l 657 185 q 650 154 644 124 q 637 94 629 63 q 624 40 618 14 q 611 -12 605 -39 q 599 -66 596 -92 q 592 -119 592 -142 q 592 -167 600 -187 q 608 -207 636 -207 q 642 -207 645 -210 q 648 -214 648 -219 q 648 -228 642 -235 q 635 -242 625 -242 q 595 -242 576 -230 q 558 -219 548 -201 q 539 -183 536 -160 q 532 -138 532 -115 q 532 -73 538 -32 q 543 9 551 50 q 515 7 467 -44 q 419 -95 364 -139 q 310 -183 250 -212 q 190 -242 129 -242 q 96 -242 68 -234 q 39 -226 18 -210 q -3 -193 -15 -168 q -27 -143 -27 -109 q -27 -86 -22 -64 q -18 -43 -10 -22 q 2 12 24 41 q 45 70 74 92 q 102 114 136 126 q 171 139 209 139 q 250 139 278 120 q 307 100 307 57 q 307 44 304 32 q 301 19 297 7 q 293 -4 284 -22 q 275 -40 263 -57 q 251 -74 236 -86 q 221 -99 205 -99 q 198 -99 195 -98 q 193 -96 190 -94 q 188 -92 188 -88 q 188 -84 192 -78 q 193 -76 194 -74 q 195 -72 196 -70 q 210 -42 224 -8 q 239 27 239 58 q 239 77 230 90 q 222 104 201 104 q 165 104 135 82 q 105 60 84 28 q 62 -4 50 -42 q 38 -79 38 -110 q 38 -156 64 -181 q 89 -206 137 -206 q 167 -206 200 -192 q 232 -177 264 -154 q 297 -131 328 -102 q 360 -72 388 -42 q 417 -11 441 18 q 465 46 483 67 q 506 96 528 124 q 551 152 573 181 z"},"*":{"x_min":0,"x_max":239,"ha":239,"o":"m 247 408 q 236 399 220 390 q 205 380 195 380 q 183 380 183 392 q 183 403 196 418 q 210 432 225 446 q 233 453 240 460 q 247 466 253 471 l 262 480 l 265 483 l 265 484 q 263 489 260 498 q 256 507 253 516 q 250 526 248 536 q 245 546 245 553 q 245 562 250 570 q 256 579 269 579 q 275 579 280 575 q 285 571 290 566 q 296 560 299 554 q 302 561 306 569 q 310 577 315 585 q 321 595 329 604 q 337 612 347 612 q 356 612 359 604 q 361 596 361 592 q 361 585 359 575 q 357 565 355 555 q 359 558 363 561 q 367 564 372 567 q 380 572 388 576 q 397 581 403 581 q 409 581 414 577 q 418 573 418 567 q 418 565 418 564 q 417 562 417 561 q 414 553 406 544 q 399 534 390 525 q 381 516 372 508 q 364 501 358 496 l 340 480 q 339 480 339 479 q 346 464 354 446 q 357 436 360 426 q 362 417 362 409 q 362 399 355 390 q 348 380 336 380 q 328 380 322 384 q 316 389 311 395 q 308 399 305 402 q 302 406 300 410 q 297 403 293 394 q 289 385 284 376 q 278 365 270 355 q 261 345 252 345 q 244 345 241 350 q 238 354 238 359 q 238 367 241 382 q 244 396 247 408 z"},"Y":{"x_min":0,"x_max":724,"ha":724,"o":"m 689 257 q 668 234 642 210 q 617 187 588 168 q 560 149 529 138 q 498 126 465 126 q 430 126 410 145 q 390 164 390 198 q 390 213 394 228 q 397 242 402 256 q 408 274 418 294 q 428 315 440 338 q 452 360 465 384 q 478 407 491 430 q 517 478 536 522 q 554 565 554 598 q 554 636 532 656 q 510 675 471 675 q 429 675 392 656 q 356 637 326 608 q 297 579 275 542 q 253 506 240 472 q 232 452 227 431 q 222 410 222 389 q 222 361 235 342 q 248 323 279 323 q 298 323 315 334 q 332 345 346 361 q 360 377 370 396 q 380 415 386 432 q 392 449 396 466 q 401 482 405 499 q 405 501 406 502 q 406 504 406 506 q 407 508 407 510 q 407 511 408 513 q 412 521 418 524 q 424 526 432 526 q 442 526 448 522 q 453 517 456 511 q 459 505 460 498 q 461 491 461 485 q 461 468 457 450 q 453 433 448 418 q 437 390 420 366 q 402 343 378 326 q 355 308 326 298 q 298 288 267 288 q 215 288 186 316 q 157 343 157 393 q 157 415 162 436 q 166 456 174 476 q 192 523 223 566 q 254 609 296 642 q 337 674 386 694 q 436 713 491 713 q 519 713 544 706 q 569 700 588 686 q 606 673 617 651 q 628 629 628 599 q 628 572 618 542 q 608 511 593 480 q 579 449 562 420 q 546 392 532 368 q 524 353 511 330 q 498 308 486 284 q 474 260 466 238 q 457 215 457 198 q 457 182 464 172 q 472 163 489 163 q 516 163 544 178 q 573 193 602 218 q 631 242 659 273 q 687 304 711 336 q 735 367 754 396 q 774 426 786 447 q 799 469 820 506 q 842 542 869 577 q 895 612 926 638 q 957 665 989 665 q 1002 665 1002 653 q 1002 648 1001 646 q 998 641 993 636 q 988 631 979 631 q 968 631 948 606 q 929 581 909 546 q 890 513 874 482 q 859 451 854 440 q 824 379 796 318 q 767 256 736 195 q 705 134 672 74 q 639 15 600 -42 q 576 -77 542 -112 q 509 -147 470 -174 q 431 -202 386 -220 q 342 -237 295 -237 q 239 -237 203 -208 q 167 -180 167 -123 q 167 -104 171 -86 q 175 -68 181 -51 q 193 -18 214 12 q 235 42 263 65 q 291 88 325 102 q 359 115 398 115 q 415 115 432 112 q 450 108 464 100 q 478 91 486 77 q 495 63 495 43 q 495 26 488 7 q 485 -2 477 -16 q 469 -29 458 -42 q 448 -54 436 -62 q 423 -71 410 -71 q 406 -71 399 -68 q 392 -66 392 -58 q 392 -55 393 -55 q 393 -53 394 -52 q 395 -49 398 -43 q 400 -38 404 -32 q 407 -27 410 -20 q 417 -6 422 9 q 427 24 427 38 q 427 79 384 79 q 352 79 324 58 q 296 37 275 6 q 254 -24 242 -58 q 230 -93 230 -121 q 230 -157 250 -179 q 270 -201 308 -201 q 339 -201 370 -188 q 400 -174 427 -152 q 454 -131 476 -106 q 499 -80 516 -56 q 541 -20 564 18 q 586 57 607 96 q 628 135 648 174 q 667 214 687 254 q 688 255 688 256 q 688 256 689 257 z"},"c":{"x_min":0,"x_max":258,"ha":258,"o":"m 28 75 q 28 102 38 134 q 48 167 65 200 q 82 234 106 266 q 129 297 156 322 q 184 346 214 360 q 244 375 275 375 q 298 375 319 364 q 340 353 340 326 q 340 317 336 304 q 331 290 323 278 q 315 265 304 256 q 294 248 281 248 q 270 248 267 254 q 264 261 264 268 q 264 278 266 287 q 269 296 273 304 q 275 308 276 312 q 277 315 278 320 q 281 327 281 335 q 281 344 270 344 q 252 344 232 328 q 213 312 193 287 q 173 262 155 230 q 137 199 124 168 q 110 137 102 109 q 93 81 93 64 q 93 50 98 40 q 104 31 118 31 q 134 31 155 42 q 176 53 196 68 q 217 84 235 102 q 253 119 264 131 q 285 154 304 180 q 323 206 341 232 l 343 234 q 343 235 345 237 q 346 239 348 240 q 349 242 351 244 q 355 247 362 247 q 374 247 374 235 q 374 229 362 211 q 349 193 334 173 q 318 153 304 136 q 291 120 286 115 q 270 97 248 77 q 227 57 202 40 q 178 22 151 11 q 124 0 97 0 q 60 0 44 22 q 28 43 28 75 z"},"!":{"x_min":0,"x_max":204,"ha":204,"o":"m 107 110 q 107 119 116 144 q 125 169 139 202 q 153 235 170 272 q 186 309 202 342 q 217 376 230 402 q 242 427 247 437 q 267 476 288 515 q 308 554 331 592 q 336 599 344 611 q 351 623 360 635 q 370 646 382 656 q 393 665 404 665 q 415 665 418 658 q 422 652 422 645 q 422 634 418 622 q 415 611 411 601 q 399 569 384 538 q 369 506 354 475 q 349 466 338 446 q 328 425 314 396 q 299 368 282 335 q 264 302 245 269 q 227 236 208 205 q 189 174 172 150 q 155 126 142 111 q 128 96 119 96 q 111 96 109 100 q 107 105 107 110 z m 52 23 q 52 33 56 44 q 61 55 68 64 q 76 74 86 80 q 97 87 108 87 q 122 87 128 78 q 133 69 133 59 q 133 49 128 38 q 124 27 116 18 q 109 8 98 2 q 88 -5 77 -5 q 63 -5 58 4 q 52 13 52 23 z"},"/":{"x_min":0,"x_max":170,"ha":170,"o":"m 17 13 q 17 17 22 30 q 28 43 37 62 q 46 80 58 102 q 69 125 81 148 q 93 171 106 194 q 118 217 128 236 q 139 256 147 270 q 155 284 158 290 q 188 345 218 398 q 248 452 279 506 q 298 538 316 570 q 335 603 357 634 q 358 636 362 642 q 366 648 369 650 q 376 661 388 661 q 396 661 399 656 q 402 651 402 646 q 402 639 394 620 q 385 602 375 582 q 364 562 354 544 q 345 526 342 521 q 333 503 310 460 q 286 416 256 361 q 225 306 192 246 q 158 187 128 136 q 97 84 74 48 q 51 12 42 5 q 37 1 29 1 q 17 1 17 13 z"},"[":{"x_min":0,"x_max":274,"ha":274,"o":"m 150 -27 q 155 -27 158 -30 q 162 -33 162 -38 q 162 -46 156 -52 q 149 -58 141 -58 l 24 -58 q 12 -58 12 -46 q 12 -45 26 -16 q 41 14 65 60 q 89 107 120 166 q 150 226 182 288 q 215 351 246 412 q 278 473 304 524 q 330 574 348 609 q 366 644 371 653 q 378 665 391 665 l 508 665 q 521 665 521 654 q 521 646 514 640 q 508 634 500 634 l 435 634 l 93 -27 z"},"6":{"x_min":0,"x_max":399,"ha":399,"o":"m 199 245 q 233 274 274 298 q 315 322 363 322 q 406 322 432 300 q 457 277 457 235 q 457 219 453 204 q 449 188 444 173 q 431 137 408 105 q 384 73 352 50 q 321 27 284 14 q 246 0 205 0 q 149 0 120 28 q 90 55 90 109 q 90 140 98 172 q 106 205 117 234 q 132 276 156 324 q 181 372 214 420 q 246 468 285 512 q 324 556 368 590 q 413 624 462 644 q 511 665 564 665 q 575 665 585 665 q 595 665 605 663 q 614 660 614 651 q 614 643 608 637 q 602 631 594 631 q 586 631 576 632 q 566 634 556 634 q 515 634 477 614 q 439 595 404 563 q 369 531 338 490 q 307 450 281 406 q 255 363 234 321 q 213 279 199 245 z m 175 185 q 167 162 160 136 q 154 110 154 87 q 154 61 165 46 q 176 31 203 31 q 237 31 269 52 q 301 73 326 104 q 350 136 364 172 q 379 209 379 239 q 379 262 368 276 q 358 291 334 291 q 317 291 300 283 q 283 275 266 264 q 258 258 250 252 q 242 245 234 239 q 227 232 220 226 q 213 219 207 214 q 203 210 199 206 q 195 203 191 200 q 186 196 182 192 q 179 189 176 186 z"},"r":{"x_min":0,"x_max":240,"ha":240,"o":"m 162 36 q 164 38 166 40 q 168 41 170 43 q 176 48 182 55 q 189 62 196 70 q 210 85 222 99 q 234 113 238 117 q 254 137 269 158 q 284 178 299 198 q 306 208 312 218 q 318 227 326 237 q 333 246 343 246 q 355 246 355 234 q 355 228 352 225 q 345 215 330 194 q 316 173 298 148 q 279 123 258 96 q 236 70 216 48 q 195 27 176 14 q 157 0 144 0 q 126 0 120 12 q 115 23 115 36 q 115 53 120 73 q 126 93 132 109 q 146 147 168 190 q 189 232 209 268 q 214 278 220 287 q 226 296 231 306 q 213 299 194 294 q 175 290 155 290 q 152 285 146 276 q 141 268 135 259 q 127 247 120 236 q 114 226 112 224 q 109 221 104 218 q 100 215 94 215 q 82 215 82 227 q 82 230 84 234 q 86 237 89 243 q 93 248 96 254 q 100 259 104 265 q 122 287 127 300 q 118 310 118 326 q 118 340 126 358 q 133 376 145 392 q 157 408 172 419 q 188 430 205 430 q 222 430 222 414 q 222 406 217 394 q 212 382 205 371 q 199 359 192 348 q 185 338 180 331 q 179 329 175 323 q 175 323 174 321 q 194 323 215 330 q 236 337 254 346 q 254 347 260 349 q 262 351 263 351 l 264 352 q 268 356 270 359 q 272 361 274 362 q 276 364 278 366 q 289 375 299 375 q 307 375 310 370 q 313 365 313 360 q 313 353 308 338 q 302 322 292 302 q 283 281 270 256 q 258 232 245 207 q 232 181 219 156 q 206 131 195 108 q 184 85 176 68 q 167 50 163 39 q 162 39 162 38 l 162 36 z"},"2":{"x_min":0,"x_max":523,"ha":523,"o":"m 318 93 q 321 89 324 85 q 327 81 330 76 q 333 71 336 66 q 340 61 344 56 q 361 36 379 36 q 397 36 412 48 q 428 60 441 77 q 454 94 464 114 q 473 133 479 147 q 484 163 488 178 q 492 194 496 210 q 496 212 496 214 q 497 215 497 217 q 498 219 498 220 q 499 222 500 224 q 503 232 509 234 q 515 237 523 237 q 533 237 539 232 q 545 228 548 222 q 551 216 552 209 q 553 202 553 196 q 553 180 549 162 q 545 145 540 131 q 530 104 512 80 q 495 56 472 38 q 449 20 421 10 q 393 0 362 0 q 325 0 304 14 q 282 29 263 56 q 248 46 230 36 q 211 26 192 18 q 172 9 152 4 q 131 -1 112 -1 q 88 -1 68 10 q 48 22 48 50 q 48 57 49 63 q 50 69 52 74 q 59 95 74 112 q 90 128 110 138 q 130 149 152 154 q 174 160 195 160 q 253 160 292 124 q 330 158 378 212 q 427 267 470 330 q 513 392 542 455 q 572 518 572 569 q 572 595 561 613 q 550 631 523 631 q 501 631 482 620 q 463 608 448 590 q 432 573 420 552 q 409 531 402 512 q 397 498 393 483 q 389 468 386 452 q 385 450 385 448 q 385 447 384 445 q 384 443 382 437 q 375 424 358 424 q 339 424 334 439 q 329 454 329 466 q 329 482 333 499 q 337 516 342 531 q 352 560 371 584 q 390 609 414 627 q 439 645 468 655 q 498 665 531 665 q 585 665 615 636 q 645 607 645 554 q 645 515 629 472 q 613 429 587 385 q 561 341 527 298 q 493 256 456 218 q 420 180 384 148 q 349 116 319 94 z m 245 86 q 231 106 216 118 q 201 129 175 129 q 160 129 144 124 q 127 118 114 108 q 100 99 91 86 q 82 73 82 58 q 82 43 92 36 q 103 30 119 30 q 151 30 184 48 q 218 67 244 85 z"},"9":{"x_min":0,"x_max":399,"ha":399,"o":"m 452 421 q 418 391 376 368 q 335 344 287 344 q 245 344 220 366 q 194 388 194 430 q 194 447 198 462 q 201 478 206 493 q 219 529 243 560 q 267 592 298 615 q 330 638 368 652 q 405 665 446 665 q 502 665 531 638 q 560 611 560 556 q 560 525 552 493 q 544 461 533 432 q 517 390 493 342 q 469 293 437 245 q 405 197 366 153 q 327 109 282 75 q 238 41 188 20 q 139 0 86 0 q 64 0 45 3 q 36 4 36 14 q 36 22 42 28 q 49 34 57 34 q 65 34 75 32 q 85 31 95 31 q 136 31 174 50 q 212 70 247 102 q 282 134 312 175 q 343 216 370 259 q 396 302 416 344 q 437 387 452 421 z m 475 481 q 483 504 490 530 q 496 556 496 579 q 496 604 485 619 q 474 634 447 634 q 413 634 381 613 q 349 592 324 560 q 300 529 286 492 q 271 456 271 426 q 271 403 282 389 q 292 375 316 375 q 333 375 350 382 q 368 390 385 402 q 393 407 400 414 q 408 420 416 427 q 424 433 430 440 q 437 446 443 451 q 447 455 451 458 q 455 462 460 466 q 464 469 468 472 q 471 476 475 480 z"}," ":{"x_min":0,"x_max":313,"ha":313,"o":""},"I":{"x_min":0,"x_max":543,"ha":543,"o":"m 370 484 q 370 492 378 498 q 387 504 394 504 q 414 504 420 488 q 425 472 425 459 q 425 424 410 390 q 396 355 370 328 q 345 300 311 282 q 277 265 239 265 q 194 265 168 290 q 141 315 141 360 q 141 376 144 392 q 148 409 153 423 q 165 453 182 478 q 199 504 223 527 q 257 560 302 587 q 348 614 400 634 q 453 655 510 670 q 568 685 625 694 q 682 704 736 708 q 791 713 838 713 q 851 713 851 700 q 851 692 844 684 q 838 677 828 677 q 808 677 783 649 q 758 621 733 581 q 721 562 710 542 q 699 523 690 506 q 681 488 674 474 q 667 459 663 451 q 649 422 635 393 q 621 364 607 335 q 584 286 560 238 q 537 189 511 140 q 485 92 458 45 q 431 -2 400 -47 q 377 -80 348 -115 q 320 -150 286 -178 q 251 -207 210 -225 q 170 -243 124 -243 q 96 -243 70 -236 q 45 -229 26 -214 q 6 -199 -6 -177 q -17 -155 -17 -125 q -17 -84 2 -42 q 21 0 53 34 q 85 67 126 88 q 167 110 212 110 q 229 110 246 106 q 264 102 278 94 q 293 85 302 71 q 311 57 311 37 q 311 23 304 4 q 297 -16 285 -34 q 273 -52 257 -64 q 241 -77 223 -77 q 216 -77 212 -72 q 209 -68 209 -63 q 209 -59 211 -55 q 212 -54 214 -50 q 224 -31 234 -7 q 244 17 244 37 q 244 73 204 73 q 171 73 142 53 q 114 33 93 3 q 72 -27 60 -62 q 48 -96 48 -124 q 48 -162 69 -184 q 90 -207 130 -207 q 160 -207 188 -193 q 215 -179 238 -158 q 262 -136 282 -110 q 301 -85 317 -62 q 345 -20 370 22 q 395 65 418 109 q 441 154 462 198 q 484 242 507 287 q 543 359 580 430 q 616 500 661 568 q 675 589 690 610 q 705 630 722 648 q 724 650 726 652 q 728 654 730 656 q 735 661 738 663 q 746 669 749 674 q 691 669 623 657 q 555 645 489 624 q 423 602 364 571 q 306 540 266 498 q 232 462 212 414 q 202 386 202 359 q 202 335 214 318 q 225 301 251 301 q 272 301 288 314 q 305 326 318 344 q 330 362 339 383 q 348 404 354 422 q 364 450 369 481 q 370 481 370 482 l 370 483 z"},"H":{"x_min":0,"x_max":925,"ha":925,"o":"m 435 142 q 424 141 420 138 q 416 135 414 131 q 413 129 412 128 q 412 128 411 126 q 410 125 410 124 q 409 123 407 122 q 402 116 394 116 q 381 116 381 128 q 381 130 382 131 q 382 132 382 133 q 393 158 413 170 q 433 182 458 188 q 460 192 462 197 q 464 202 467 207 q 470 213 473 218 q 476 224 478 228 l 498 269 q 536 345 574 420 q 613 496 661 568 q 675 589 690 609 q 705 629 722 648 q 723 650 725 652 q 727 653 729 655 q 732 657 738 663 q 746 669 749 674 q 691 669 623 657 q 555 645 489 624 q 423 602 364 571 q 306 540 266 498 q 232 462 212 414 q 202 386 202 359 q 202 335 214 318 q 225 301 251 301 q 273 301 290 314 q 306 326 318 344 q 330 362 339 383 q 348 404 354 422 q 364 450 369 481 q 370 481 370 482 l 370 483 l 370 484 q 370 492 378 498 q 387 504 394 504 q 414 504 420 488 q 425 472 425 459 q 425 424 410 390 q 396 355 370 328 q 345 300 311 282 q 277 265 239 265 q 194 265 168 290 q 141 315 141 360 q 141 376 144 392 q 148 409 153 423 q 177 482 223 527 q 257 560 302 587 q 348 614 400 634 q 453 655 510 670 q 568 685 625 694 q 682 704 736 708 q 791 713 838 713 q 851 713 851 700 q 851 692 844 684 q 838 677 828 677 q 808 677 783 649 q 758 621 733 581 q 721 562 710 542 q 699 523 690 506 q 681 488 674 474 q 667 459 663 451 q 649 422 635 393 q 621 364 607 335 l 597 315 q 583 285 568 256 q 553 226 539 196 q 607 195 673 186 q 739 177 807 170 q 819 194 843 240 q 867 287 898 342 q 930 397 966 454 q 1003 512 1040 558 q 1078 605 1114 635 q 1151 665 1182 665 q 1187 665 1192 662 q 1196 659 1196 653 q 1196 644 1188 637 q 1180 630 1171 630 q 1164 630 1154 621 q 1143 612 1130 596 q 1118 580 1104 560 q 1091 539 1077 516 q 1063 493 1050 470 q 1037 448 1026 428 q 1016 409 1008 394 q 1001 380 997 374 q 978 339 960 304 q 942 270 924 235 q 916 221 909 206 q 902 191 894 177 q 893 174 889 168 q 889 167 888 166 q 888 166 888 165 q 906 166 913 170 q 920 174 923 179 q 924 180 926 184 q 927 185 928 186 q 928 187 930 189 q 934 195 944 195 q 956 195 956 183 q 956 180 955 178 q 943 149 918 136 q 893 122 864 117 q 858 105 850 87 q 841 69 830 47 q 820 25 808 0 q 797 -24 786 -49 q 763 -100 746 -144 q 730 -189 730 -211 q 730 -215 730 -216 q 731 -218 731 -219 q 732 -220 735 -220 q 736 -221 739 -221 q 739 -221 743 -223 q 748 -226 748 -233 q 748 -241 740 -248 q 732 -256 723 -256 q 692 -256 682 -236 q 672 -216 672 -193 q 672 -158 683 -118 q 694 -78 711 -37 q 727 4 745 42 q 763 79 777 111 q 709 112 643 122 q 577 131 510 139 q 493 106 470 65 q 448 24 420 -18 q 392 -61 360 -102 q 327 -142 290 -174 q 252 -205 210 -224 q 169 -243 124 -243 q 96 -243 70 -236 q 45 -229 26 -214 q 6 -199 -6 -177 q -17 -155 -17 -125 q -17 -84 2 -42 q 21 0 53 34 q 85 67 126 88 q 167 110 212 110 q 229 110 246 106 q 264 102 278 94 q 293 85 302 71 q 311 57 311 37 q 311 23 304 4 q 297 -16 285 -34 q 273 -52 257 -64 q 241 -77 223 -77 q 216 -77 212 -72 q 209 -68 209 -63 q 209 -59 211 -55 q 212 -54 214 -50 q 224 -31 234 -7 q 244 17 244 37 q 244 73 204 73 q 171 73 142 53 q 114 33 93 4 q 72 -26 60 -60 q 48 -95 48 -124 q 48 -162 69 -184 q 90 -207 130 -207 q 160 -207 188 -193 q 215 -179 238 -158 q 262 -136 282 -110 q 301 -85 317 -62 q 341 -27 362 10 q 384 47 404 85 q 412 99 420 114 q 427 128 435 142 z"},"4":{"x_min":0,"x_max":486,"ha":486,"o":"m 439 284 q 441 289 446 298 q 451 307 457 318 q 463 330 470 342 q 476 353 478 357 q 481 364 488 378 q 495 391 504 408 q 513 425 524 445 q 534 465 545 485 q 556 505 566 524 q 577 543 586 558 q 594 573 600 583 q 606 593 609 596 q 610 597 611 598 q 612 598 613 599 q 614 600 615 600 q 616 601 617 602 q 624 607 629 607 q 638 607 642 601 q 645 595 645 589 q 645 585 644 580 q 643 574 641 569 q 639 563 638 558 q 636 553 634 549 q 623 520 610 492 q 598 463 585 434 q 567 394 548 354 q 529 315 509 276 q 489 237 470 198 q 450 160 428 122 q 414 98 400 74 q 386 50 369 28 q 364 20 354 10 q 349 6 344 3 q 338 0 331 0 q 324 0 320 4 q 317 9 317 15 q 317 26 328 53 q 338 80 352 110 q 366 140 380 167 q 394 194 400 206 q 402 211 406 218 q 410 225 414 233 q 417 238 420 243 q 422 248 424 253 l 112 253 q 99 253 99 265 q 99 267 101 271 q 102 272 102 272 q 102 273 103 274 q 103 275 104 275 q 104 275 104 276 q 115 290 126 302 q 138 315 149 328 q 216 403 293 469 q 330 502 376 536 q 423 571 474 600 q 525 628 579 646 q 633 664 686 664 q 698 664 698 652 q 698 644 692 638 q 685 633 677 633 q 647 633 612 618 q 577 604 540 581 q 503 558 466 528 q 429 499 396 468 q 362 438 333 410 q 304 382 284 361 q 257 334 232 306 l 228 302 q 226 300 224 298 q 223 296 221 294 q 218 291 216 288 q 214 286 212 284 z"},"D":{"x_min":0,"x_max":1013,"ha":1013,"o":"m 521 161 q 504 127 480 84 q 457 40 429 -5 q 401 -50 368 -92 q 334 -135 296 -168 q 257 -202 214 -222 q 171 -243 124 -243 q 96 -243 70 -236 q 45 -229 26 -214 q 6 -199 -6 -177 q -17 -155 -17 -125 q -17 -84 2 -42 q 21 0 53 34 q 85 67 126 88 q 167 110 212 110 q 229 110 246 106 q 264 102 278 94 q 293 85 302 71 q 311 57 311 37 q 311 23 304 4 q 297 -16 285 -34 q 273 -52 257 -64 q 241 -77 223 -77 q 216 -77 212 -72 q 209 -68 209 -63 q 209 -59 211 -55 q 212 -54 214 -50 q 224 -31 234 -7 q 244 17 244 37 q 244 73 204 73 q 171 73 142 53 q 114 33 93 3 q 72 -27 60 -62 q 48 -96 48 -124 q 48 -162 69 -184 q 90 -207 130 -207 q 160 -207 188 -193 q 215 -179 238 -158 q 262 -136 282 -110 q 301 -85 317 -62 q 345 -20 370 22 q 395 65 418 109 q 441 154 462 198 q 484 242 507 287 q 543 359 580 430 q 616 500 661 568 q 674 588 688 607 q 701 626 718 643 q 724 650 730 656 q 736 663 743 669 q 745 670 746 671 q 746 672 748 673 q 748 673 749 674 q 704 670 652 662 q 599 654 545 640 q 491 625 438 604 q 386 584 341 556 q 296 529 262 494 q 229 458 212 414 q 202 386 202 359 q 202 335 214 318 q 225 301 251 301 q 272 301 288 314 q 305 326 318 344 q 330 362 339 383 q 348 404 354 422 q 364 450 369 481 q 370 481 370 482 l 370 483 l 370 484 q 370 492 378 498 q 387 504 394 504 q 414 504 420 488 q 425 472 425 459 q 425 424 410 390 q 396 355 370 328 q 345 300 311 282 q 277 265 239 265 q 194 265 168 290 q 141 315 141 360 q 141 376 144 392 q 148 408 153 423 q 165 453 182 478 q 199 504 223 527 q 257 560 302 587 q 348 614 400 634 q 453 655 510 670 q 568 685 625 694 q 682 704 736 708 q 791 713 838 713 q 851 713 851 700 q 851 692 844 684 q 838 677 828 677 q 808 677 783 649 q 758 621 733 581 q 721 562 710 542 q 699 523 690 506 q 681 488 674 474 q 667 459 663 451 q 649 422 635 393 q 621 364 607 335 q 602 324 597 314 q 592 304 587 293 q 585 291 584 288 q 584 286 582 284 q 614 322 648 359 q 681 396 716 433 q 728 446 744 463 q 759 480 778 499 q 796 517 816 536 q 837 556 859 575 q 902 612 947 638 q 992 665 1032 665 q 1060 665 1077 652 q 1094 640 1104 620 q 1113 601 1116 578 q 1120 556 1120 536 q 1120 507 1116 475 q 1111 443 1104 411 q 1096 379 1086 348 q 1076 318 1066 291 q 1046 237 1023 186 q 1000 136 971 87 q 938 31 891 -32 q 844 -94 785 -146 q 726 -199 658 -233 q 590 -267 515 -267 q 491 -267 466 -262 q 442 -258 422 -246 q 402 -235 389 -216 q 376 -198 376 -170 q 376 -158 378 -146 q 381 -134 385 -123 q 397 -91 418 -64 q 439 -36 466 -16 q 494 4 528 15 q 561 26 597 26 q 611 26 611 13 q 611 4 604 -3 q 596 -10 586 -10 q 562 -10 541 -21 q 520 -32 502 -49 q 485 -66 472 -88 q 460 -109 453 -130 q 445 -151 445 -170 q 445 -203 467 -218 q 489 -233 522 -233 q 564 -233 604 -216 q 644 -198 682 -170 q 720 -141 754 -104 q 788 -67 817 -28 q 846 11 870 50 q 894 88 911 120 q 963 218 1002 323 q 1011 348 1021 378 q 1031 409 1040 440 q 1048 472 1053 504 q 1058 535 1058 562 q 1058 571 1057 583 q 1056 595 1052 606 q 1047 617 1040 624 q 1033 630 1021 630 q 990 630 950 604 q 911 579 870 543 q 850 526 830 507 q 811 488 794 471 q 777 454 763 438 q 749 422 738 411 q 683 352 626 288 q 570 224 521 161 z"},"0":{"x_min":0,"x_max":519,"ha":519,"o":"m 234 36 q 274 36 317 65 q 360 94 401 140 q 442 187 479 244 q 516 302 544 360 q 571 418 587 470 q 603 523 603 558 q 603 590 590 610 q 576 630 542 630 q 502 630 460 601 q 417 572 376 525 q 335 478 298 420 q 261 362 234 304 q 206 245 190 193 q 173 141 173 106 q 173 75 186 56 q 200 36 234 36 z m 222 0 q 161 0 132 33 q 102 66 102 123 q 102 157 110 190 q 119 224 130 256 q 144 294 167 340 q 190 385 220 430 q 251 475 288 518 q 325 560 366 593 q 408 626 454 646 q 500 665 549 665 q 610 665 640 633 q 669 601 669 544 q 669 510 660 476 q 652 443 641 412 q 627 374 604 328 q 581 283 551 237 q 521 191 484 148 q 447 106 405 73 q 363 40 317 20 q 271 0 222 0 z"},"F":{"x_min":0,"x_max":707,"ha":707,"o":"m 498 169 q 484 172 471 172 q 460 172 456 168 q 452 165 449 160 q 448 159 446 155 q 445 154 444 153 q 444 152 442 150 q 437 145 429 145 q 416 145 416 157 q 416 158 416 159 q 417 160 417 162 q 431 197 456 210 q 482 224 519 224 q 527 224 535 224 q 543 223 551 222 q 565 253 582 283 q 598 313 612 343 q 580 329 543 316 q 506 303 467 293 q 428 283 390 277 q 351 271 316 271 q 290 271 260 276 q 231 281 206 293 q 181 305 164 326 q 148 348 148 381 q 148 409 159 436 q 171 469 194 500 q 217 532 248 556 q 279 580 316 594 q 352 609 390 609 q 428 609 456 590 q 484 572 484 530 q 484 505 474 477 q 470 466 461 448 q 452 430 440 413 q 428 396 413 384 q 398 371 382 371 q 376 371 372 373 q 365 375 365 382 q 365 387 369 393 q 370 395 371 397 q 372 399 373 401 q 380 415 388 432 q 396 448 402 466 q 409 483 414 500 q 418 518 418 533 q 418 573 380 573 q 351 573 322 554 q 292 534 268 505 q 244 476 229 444 q 214 411 214 384 q 214 361 224 346 q 234 332 250 323 q 265 314 285 310 q 305 307 326 307 q 361 307 402 314 q 443 320 484 332 q 525 343 564 357 q 602 371 634 386 q 644 407 660 439 q 677 471 698 508 q 719 544 744 580 q 770 617 797 646 q 824 676 853 694 q 882 713 910 713 q 934 713 950 700 q 967 688 967 662 q 967 625 938 586 q 909 546 868 509 q 828 472 784 442 q 741 412 712 395 q 711 392 709 388 q 708 386 707 384 q 706 382 705 380 q 691 351 678 323 q 665 295 651 266 q 644 252 636 237 q 629 222 622 207 q 631 205 640 202 q 649 200 659 198 q 681 193 700 193 q 713 193 718 197 q 724 201 727 206 l 730 212 q 731 214 732 214 q 733 215 734 217 q 738 223 748 223 q 761 223 761 211 q 761 210 760 209 q 760 208 760 206 q 746 170 719 154 q 692 139 653 139 q 637 139 622 141 q 607 143 591 146 q 574 113 552 72 q 529 31 501 -12 q 473 -55 440 -95 q 407 -135 370 -167 q 332 -199 290 -218 q 249 -237 204 -237 q 177 -237 152 -230 q 126 -223 106 -208 q 87 -194 75 -172 q 63 -150 63 -120 q 63 -79 82 -37 q 101 5 133 38 q 165 72 206 94 q 248 115 293 115 q 309 115 326 112 q 344 108 358 100 q 373 91 382 77 q 391 63 391 43 q 391 27 384 8 q 381 -1 374 -14 q 366 -28 356 -40 q 345 -53 332 -62 q 320 -71 307 -71 q 302 -71 295 -68 q 288 -66 288 -58 l 288 -56 l 289 -55 q 289 -54 290 -54 q 290 -53 290 -51 q 291 -49 292 -47 q 293 -45 294 -43 q 297 -38 300 -32 q 303 -26 307 -18 q 314 -4 319 12 q 324 28 324 42 q 324 79 284 79 q 251 79 222 59 q 194 39 172 9 q 151 -21 139 -56 q 127 -90 127 -118 q 127 -156 148 -178 q 170 -201 209 -201 q 240 -201 267 -187 q 294 -173 318 -152 q 341 -130 360 -104 q 380 -79 396 -56 q 422 -18 446 22 q 469 63 491 104 q 499 119 506 134 q 514 148 522 163 z m 738 449 q 762 467 788 490 q 814 512 837 538 q 860 563 878 590 q 897 618 906 645 q 908 651 910 657 q 912 663 912 668 q 912 678 903 678 q 886 678 866 658 q 847 639 827 610 q 808 582 793 554 q 778 527 771 513 q 763 497 754 482 q 746 466 738 449 z"},"`":{"x_min":0,"x_max":139,"ha":139,"o":"m 272 565 q 270 576 270 587 q 269 598 269 603 q 269 610 270 626 q 271 642 274 659 q 276 667 278 675 q 280 683 284 689 q 292 704 305 704 q 318 704 322 693 q 327 682 328 666 q 329 650 329 638 q 329 630 328 613 q 327 596 324 579 q 322 571 320 562 q 317 554 313 548 q 310 542 305 538 q 300 533 293 533 q 283 533 278 544 q 273 553 272 565 z"},"k":{"x_min":0,"x_max":279,"ha":279,"o":"m 65 24 q 66 23 66 19 q 66 11 60 6 q 53 0 45 0 q 32 0 25 13 q 21 22 21 35 q 21 48 24 64 q 27 81 32 98 q 37 114 42 130 q 47 146 52 158 q 61 181 81 228 q 101 275 128 332 q 156 388 188 448 q 221 507 255 556 q 289 604 322 635 q 355 666 384 666 q 395 666 400 660 q 406 653 406 643 q 406 630 398 610 q 390 590 376 566 q 362 541 344 514 q 326 486 307 458 q 288 430 268 402 q 248 375 230 351 q 213 327 198 308 q 184 288 175 276 q 193 282 216 292 q 239 303 262 316 q 285 328 304 341 q 324 354 335 365 q 339 369 340 371 q 342 373 342 374 q 343 376 345 378 q 347 383 352 388 q 356 392 364 392 q 377 392 377 380 q 377 378 376 378 q 376 377 376 375 q 369 357 353 339 q 337 321 316 305 q 296 289 274 276 q 253 264 234 257 q 253 250 262 235 q 270 220 270 201 q 270 181 264 160 q 257 140 247 119 q 237 99 227 80 q 217 60 211 42 q 209 38 208 35 q 208 34 208 33 q 207 32 207 31 q 209 33 228 55 q 247 77 270 108 q 282 123 293 138 q 304 152 313 164 q 322 177 329 186 q 336 195 339 199 q 346 208 352 218 q 358 228 366 237 q 373 246 383 246 q 395 246 395 234 q 395 231 390 224 q 386 217 380 206 q 373 196 364 184 q 355 171 346 159 q 327 134 309 112 q 291 89 286 82 q 281 77 276 70 q 272 64 267 58 q 261 51 255 44 q 249 37 242 31 q 229 18 214 9 q 199 0 182 0 q 149 0 149 31 q 149 48 159 71 q 163 82 168 92 q 173 103 179 114 q 190 136 198 156 q 207 177 207 197 q 207 219 192 227 q 177 235 155 236 q 134 189 112 143 q 90 97 73 49 q 72 47 71 44 q 70 40 69 36 q 68 33 67 30 q 66 26 65 24 z m 249 424 q 267 449 288 480 q 309 511 328 541 q 346 571 359 596 q 372 621 373 633 q 366 626 346 594 q 326 563 302 520 q 288 494 274 469 q 260 444 249 424 z"},"u":{"x_min":0,"x_max":296,"ha":296,"o":"m 178 80 q 167 67 154 53 q 141 39 126 27 q 111 15 94 8 q 78 0 62 0 q 37 0 28 15 q 19 30 19 50 q 19 70 25 92 q 31 115 38 133 q 41 143 51 164 q 61 186 74 213 q 87 240 102 268 q 118 297 134 321 q 150 345 165 360 q 180 375 192 375 q 200 375 203 370 q 206 365 206 360 q 206 355 204 350 q 203 344 201 339 q 196 326 188 308 q 181 291 171 271 q 161 251 150 230 q 139 209 128 187 q 107 142 91 104 q 75 66 75 43 q 75 37 76 35 q 77 32 81 32 q 90 32 104 43 q 118 54 134 71 q 149 88 165 110 q 181 131 195 151 q 209 171 220 188 q 231 206 236 215 q 242 226 256 252 q 269 277 286 304 q 303 330 321 352 q 339 375 355 375 q 363 375 366 370 q 369 365 369 360 q 369 353 364 338 q 358 322 348 302 q 339 282 327 258 q 315 233 302 208 q 288 182 275 158 q 262 133 251 110 q 240 87 232 68 q 223 50 219 39 q 218 39 218 38 l 218 36 q 220 38 222 40 q 224 41 226 43 q 232 48 238 55 q 245 62 252 70 q 266 85 278 99 q 290 113 294 117 q 309 136 324 155 q 338 174 352 194 q 360 205 367 216 q 374 227 382 237 q 389 246 399 246 q 411 246 411 234 q 411 228 408 225 q 401 215 386 194 q 372 173 354 148 q 335 123 314 96 q 292 70 272 48 q 251 27 232 14 q 213 0 200 0 q 182 0 176 12 q 171 23 171 36 q 171 46 173 58 q 175 69 178 80 z"},"]":{"x_min":0,"x_max":275,"ha":275,"o":"m 412 634 l 355 634 q 342 634 342 646 q 342 654 348 660 q 355 665 363 665 l 480 665 q 493 665 493 653 q 493 651 478 622 q 464 594 440 548 q 416 501 385 442 q 354 382 322 320 q 290 257 258 196 q 226 134 200 84 q 174 33 156 -2 q 138 -37 133 -46 q 131 -51 126 -54 q 120 -58 114 -58 l -4 -58 q -9 -58 -12 -55 q -16 -52 -16 -46 q -16 -38 -10 -32 q -3 -27 5 -27 l 70 -27 z"},"U":{"x_min":0,"x_max":815,"ha":815,"o":"m 635 23 q 609 -13 572 -59 q 535 -105 494 -146 q 452 -186 408 -214 q 365 -242 326 -242 q 305 -242 290 -234 q 276 -227 267 -214 q 258 -202 254 -186 q 251 -170 251 -153 q 251 -125 258 -98 q 264 -70 273 -44 q 285 -12 300 21 q 315 54 332 87 q 349 120 366 152 q 384 184 401 214 q 418 244 435 276 q 452 308 469 341 q 503 405 528 470 q 538 497 544 525 q 551 553 551 582 q 551 623 532 649 q 514 675 469 675 q 436 675 404 660 q 372 646 344 622 q 316 598 292 566 q 269 535 252 502 q 235 468 226 434 q 216 400 216 371 q 216 343 228 324 q 241 304 272 304 q 291 304 308 315 q 325 326 339 342 q 353 358 363 377 q 373 396 379 413 q 385 430 390 446 q 394 463 398 480 q 398 482 398 484 q 399 485 399 487 q 400 489 400 490 q 400 492 402 494 q 405 502 411 504 q 417 507 425 507 q 435 507 440 502 q 446 498 449 492 q 452 486 453 479 q 454 472 454 466 q 454 449 450 432 q 446 414 441 399 q 430 371 412 348 q 395 324 372 306 q 348 289 320 279 q 291 269 260 269 q 208 269 180 296 q 151 324 151 375 q 151 398 156 420 q 161 442 169 463 q 186 509 217 554 q 248 599 289 634 q 330 670 380 692 q 430 713 485 713 q 554 713 588 676 q 621 639 621 575 q 621 526 603 468 q 585 411 558 353 q 532 295 502 241 q 472 187 449 144 q 434 118 418 88 q 402 59 386 29 q 370 -1 356 -31 q 342 -61 332 -89 q 325 -107 320 -126 q 315 -145 315 -164 q 315 -181 322 -194 q 329 -207 347 -207 q 372 -207 404 -185 q 435 -163 470 -128 q 504 -93 538 -50 q 572 -7 602 34 q 633 76 657 112 q 681 147 694 168 q 711 194 728 220 q 744 246 760 272 q 769 287 782 312 q 796 337 813 368 q 830 398 850 432 q 871 466 894 499 q 916 531 940 561 q 963 591 987 614 q 1011 637 1034 651 q 1058 665 1080 665 q 1085 665 1090 662 q 1095 659 1095 653 q 1095 644 1087 637 q 1079 630 1070 630 q 1063 630 1052 621 q 1042 612 1030 596 q 1017 580 1003 560 q 989 539 975 516 q 961 493 948 470 q 936 448 926 428 q 915 409 907 394 q 899 380 896 374 q 877 339 859 304 q 841 270 822 235 q 812 216 794 180 q 775 144 754 100 q 732 56 710 8 q 688 -40 670 -83 q 651 -126 640 -160 q 628 -194 628 -211 q 628 -217 630 -219 q 631 -220 634 -220 q 635 -221 637 -221 q 638 -221 642 -223 q 646 -226 646 -233 q 646 -241 638 -248 q 630 -256 622 -256 q 591 -256 581 -236 q 571 -216 571 -193 q 571 -165 579 -132 q 587 -99 599 -66 q 607 -43 616 -20 q 626 3 635 23 z"},"o":{"x_min":0,"x_max":300,"ha":300,"o":"m 153 301 q 154 301 154 302 q 164 317 178 330 q 193 343 210 353 q 228 363 247 369 q 266 375 285 375 q 320 375 334 354 q 349 332 349 303 q 349 281 344 260 q 339 239 332 219 q 327 205 320 192 q 314 178 307 164 q 333 179 350 196 q 366 213 386 237 q 393 246 403 246 q 415 246 415 234 q 415 228 412 225 q 387 190 354 163 q 322 136 280 121 q 266 100 246 78 q 227 57 203 40 q 179 22 152 11 q 126 0 98 0 q 60 0 40 21 q 21 42 21 77 q 21 106 32 139 q 43 172 62 202 q 80 233 104 259 q 128 285 153 301 z m 150 229 q 150 229 149 228 l 149 225 q 148 223 148 221 q 148 219 147 217 q 146 212 146 208 q 146 205 146 203 q 146 171 170 156 q 193 141 224 140 q 234 160 245 181 q 256 202 267 225 q 277 248 284 270 q 290 293 290 314 q 290 326 286 335 q 281 344 268 344 q 255 344 240 336 q 224 329 212 321 l 218 321 q 230 321 230 309 q 230 306 229 304 q 227 299 222 294 q 216 290 209 290 q 203 290 194 283 q 186 276 177 265 q 168 255 161 244 q 154 234 150 229 z m 116 165 q 115 163 114 162 q 113 160 112 158 q 110 152 108 146 q 105 141 103 137 q 97 120 92 100 q 87 81 87 64 q 87 50 92 40 q 97 31 111 31 q 123 31 137 39 q 151 47 164 59 q 176 71 187 84 q 198 98 204 109 q 178 111 152 125 q 125 139 116 165 z"},"N":{"x_min":0,"x_max":966,"ha":966,"o":"m 858 255 q 867 311 872 368 q 877 425 877 482 q 877 495 875 528 q 873 560 868 594 q 863 629 853 653 q 843 677 828 677 q 808 677 783 649 q 758 621 733 581 q 721 562 710 542 q 699 523 690 506 q 681 488 674 474 q 667 459 663 451 q 649 422 635 393 q 621 364 607 335 q 584 286 560 238 q 537 189 511 140 q 485 92 458 45 q 431 -2 400 -47 q 377 -80 348 -115 q 320 -150 286 -178 q 251 -207 210 -225 q 170 -243 124 -243 q 96 -243 70 -236 q 45 -229 26 -214 q 6 -199 -6 -177 q -17 -155 -17 -125 q -17 -84 2 -42 q 21 0 53 34 q 85 67 126 88 q 167 110 212 110 q 229 110 246 106 q 264 102 278 94 q 293 85 302 71 q 311 57 311 37 q 311 23 304 4 q 297 -16 285 -34 q 273 -52 257 -64 q 241 -77 223 -77 q 216 -77 212 -72 q 209 -68 209 -63 q 209 -59 211 -55 q 212 -54 214 -50 q 224 -31 234 -7 q 244 17 244 37 q 244 73 204 73 q 171 73 142 53 q 114 33 93 4 q 72 -26 60 -60 q 48 -95 48 -124 q 48 -162 69 -184 q 90 -207 130 -207 q 160 -207 188 -193 q 215 -179 238 -158 q 262 -136 282 -110 q 301 -85 317 -62 q 345 -20 370 22 q 395 65 418 109 q 441 154 462 198 q 484 242 507 287 q 543 359 580 430 q 616 500 661 568 q 674 588 688 607 q 701 626 718 643 q 724 650 730 656 q 736 663 743 669 q 745 670 746 671 q 746 672 748 673 q 748 673 749 674 q 690 669 622 657 q 555 645 489 624 q 423 602 364 571 q 306 540 266 498 q 232 462 212 414 q 202 386 202 359 q 202 335 214 318 q 225 301 251 301 q 272 301 288 314 q 305 326 318 344 q 330 362 339 383 q 348 404 354 422 q 364 450 369 481 q 370 481 370 482 l 370 483 l 370 484 q 370 492 378 498 q 387 504 394 504 q 414 504 420 488 q 425 472 425 459 q 425 424 410 390 q 396 355 370 328 q 345 300 311 282 q 277 265 239 265 q 194 265 168 290 q 141 315 141 360 q 141 376 144 392 q 148 408 153 423 q 165 453 182 478 q 199 504 223 527 q 257 560 302 587 q 348 614 400 634 q 453 655 510 670 q 568 685 625 694 q 682 704 736 708 q 791 713 838 713 q 865 713 884 696 q 903 680 915 654 q 927 628 934 596 q 942 563 945 532 q 948 500 949 473 q 950 446 950 430 q 950 422 950 413 q 950 404 949 395 q 970 425 1006 471 q 1041 517 1083 560 q 1125 603 1170 634 q 1215 665 1255 665 q 1268 665 1268 653 q 1268 640 1260 636 q 1251 632 1243 630 q 1233 628 1226 624 q 1218 621 1210 616 q 1180 596 1142 553 q 1103 510 1064 459 q 1026 408 993 358 q 960 309 941 276 q 939 258 937 240 q 935 223 933 206 q 923 137 908 70 q 893 3 869 -62 q 861 -83 848 -114 q 834 -145 814 -174 q 795 -202 770 -222 q 745 -242 715 -242 q 689 -242 682 -224 q 674 -206 674 -188 q 674 -157 684 -122 q 694 -86 704 -57 q 734 25 774 102 q 815 178 858 254 z m 828 76 q 814 48 796 10 q 777 -27 760 -66 q 744 -105 733 -140 q 722 -174 722 -196 q 722 -201 723 -204 q 724 -207 725 -207 q 730 -207 738 -196 q 742 -191 746 -184 q 749 -177 753 -169 q 761 -153 767 -138 q 773 -123 775 -117 q 792 -69 805 -21 q 818 27 828 76 z"},"+":{"x_min":0,"x_max":245,"ha":245,"o":"m 168 195 q 161 196 150 196 q 140 197 129 199 q 122 201 116 202 q 109 204 104 206 q 99 208 96 212 q 92 215 92 220 q 92 231 106 240 q 117 246 136 249 q 151 251 166 252 q 181 253 189 253 q 193 264 196 274 q 200 285 205 296 q 214 318 228 340 q 232 345 238 351 q 244 357 253 357 q 263 357 265 349 q 267 346 267 342 q 267 339 267 337 q 267 320 260 296 q 253 272 246 254 q 254 255 265 254 q 276 254 287 252 q 302 250 312 246 q 317 244 320 240 q 324 236 324 230 q 324 216 310 208 q 296 201 279 198 q 264 195 248 194 q 233 194 223 194 q 220 186 216 178 q 213 171 210 163 q 207 156 202 144 q 197 132 190 120 q 184 109 176 99 q 168 89 158 89 q 150 89 147 94 q 144 98 144 104 q 144 111 146 123 q 149 135 153 148 q 157 161 161 174 q 165 186 168 195 z"},"G":{"x_min":0,"x_max":763,"ha":763,"o":"m 743 248 q 748 256 754 266 q 759 277 767 288 q 780 312 799 335 q 817 358 838 375 q 860 392 884 392 q 897 392 897 379 q 897 375 896 373 q 893 367 888 362 q 883 357 874 357 q 872 357 869 354 q 867 352 864 349 q 862 346 859 342 q 854 335 848 326 q 843 317 838 306 q 827 286 819 267 q 811 248 808 242 q 787 196 760 142 q 734 89 702 36 q 670 -17 632 -66 q 593 -116 547 -154 q 501 -192 448 -214 q 394 -237 331 -237 q 303 -237 276 -230 q 250 -223 229 -208 q 208 -193 196 -170 q 183 -148 183 -117 q 183 -76 202 -34 q 222 7 254 40 q 286 73 327 94 q 368 115 412 115 q 429 115 446 112 q 464 108 478 100 q 493 91 502 77 q 511 63 511 43 q 511 27 504 8 q 501 -1 493 -14 q 485 -28 474 -40 q 464 -53 452 -62 q 439 -71 426 -71 q 422 -71 415 -68 q 408 -66 408 -58 q 408 -55 409 -55 q 409 -53 410 -51 q 411 -49 412 -47 q 412 -45 414 -43 q 416 -38 420 -32 q 423 -26 426 -18 q 434 -4 439 12 q 444 28 444 42 q 444 79 403 79 q 370 79 342 60 q 314 40 293 10 q 272 -19 260 -53 q 248 -87 248 -115 q 248 -153 270 -177 q 291 -201 331 -201 q 385 -201 430 -176 q 475 -152 513 -114 q 551 -77 582 -32 q 612 12 636 53 q 651 79 666 106 q 681 132 695 159 q 666 139 631 128 q 596 116 560 116 q 498 116 464 146 q 430 176 430 236 q 430 242 431 258 q 432 274 434 284 q 415 282 396 281 q 376 280 356 280 q 328 280 293 284 q 258 288 227 300 q 196 312 174 335 q 153 358 153 396 q 153 435 176 472 q 198 510 232 540 q 267 570 309 588 q 351 606 390 606 q 428 606 456 588 q 485 569 485 527 q 485 502 475 474 q 471 463 462 445 q 453 427 441 410 q 429 393 414 380 q 399 368 383 368 q 381 368 373 370 q 367 372 367 380 q 367 385 370 390 q 372 392 372 394 q 373 396 374 398 q 382 415 390 431 q 398 447 404 464 q 409 479 414 496 q 418 513 418 529 q 418 549 410 560 q 401 571 380 571 q 353 571 325 554 q 297 537 274 512 q 251 486 236 456 q 222 427 222 402 q 222 375 236 358 q 251 341 274 332 q 296 322 322 319 q 348 316 372 316 q 390 316 408 317 q 426 318 444 320 q 446 325 448 331 q 449 337 451 342 q 473 400 515 466 q 557 531 614 586 q 670 641 736 677 q 803 713 875 713 q 894 713 913 709 q 932 705 947 696 q 962 687 971 672 q 980 657 980 634 q 980 608 969 581 q 946 519 894 471 q 843 423 778 388 q 713 353 642 330 q 572 308 510 296 q 505 283 502 264 q 500 245 500 231 q 500 193 519 172 q 538 151 579 151 q 603 151 626 160 q 649 168 670 182 q 692 195 710 212 q 729 229 743 247 z m 524 335 q 579 347 638 369 q 696 391 748 424 q 800 456 841 498 q 882 541 902 595 q 906 606 908 616 q 911 627 911 638 q 911 659 899 668 q 887 677 865 677 q 831 677 796 660 q 761 642 726 614 q 692 586 660 550 q 628 513 602 475 q 575 437 554 400 q 534 364 524 335 z"},"q":{"x_min":0,"x_max":298,"ha":298,"o":"m 107 -214 q 110 -217 110 -221 q 110 -229 104 -235 q 97 -241 89 -241 q 74 -241 70 -232 q 65 -222 65 -211 q 65 -188 76 -152 q 88 -117 103 -80 q 117 -49 130 -20 q 143 9 154 32 q 138 18 120 9 q 101 0 79 0 q 47 0 34 20 q 22 40 22 66 q 22 91 32 124 q 42 157 60 191 q 77 225 100 258 q 124 291 150 317 q 177 343 206 359 q 235 375 264 375 q 289 375 302 363 q 315 351 317 331 q 321 336 324 342 q 328 347 333 352 q 339 360 348 368 q 356 375 364 375 q 378 375 378 362 q 378 356 371 338 q 364 321 354 297 q 343 273 330 246 q 316 218 303 192 q 290 167 279 146 q 268 124 262 112 q 313 149 353 195 q 361 206 368 216 q 376 226 384 237 q 391 246 401 246 q 414 246 414 234 q 414 229 410 225 q 375 173 332 134 q 289 96 236 62 q 235 57 232 52 q 230 48 228 43 q 221 32 218 25 q 201 -7 185 -40 q 169 -72 154 -104 q 143 -127 132 -151 q 121 -175 112 -199 q 110 -203 110 -206 q 109 -210 107 -214 z m 99 31 q 112 31 130 47 q 149 63 166 85 q 184 107 198 129 q 213 151 220 163 q 226 173 232 183 q 237 193 242 204 q 250 218 258 232 q 266 246 274 260 q 279 268 282 286 q 285 303 285 313 q 285 325 281 334 q 277 344 264 344 q 248 344 228 327 q 209 310 189 283 q 169 256 150 223 q 131 190 116 158 q 102 125 94 97 q 85 69 85 53 q 85 44 88 38 q 91 31 99 31 z"},"d":{"x_min":0,"x_max":322,"ha":322,"o":"m 210 97 q 200 83 189 70 q 178 56 166 43 q 147 25 126 12 q 104 0 79 0 q 47 0 34 20 q 22 40 22 66 q 22 91 32 124 q 42 156 59 190 q 76 224 100 258 q 123 291 150 317 q 177 343 206 359 q 235 375 264 375 q 307 375 316 339 q 326 358 343 390 q 360 421 382 458 q 403 494 428 531 q 452 568 476 598 q 500 628 523 647 q 546 666 564 666 q 575 666 580 660 q 585 653 585 643 q 585 630 577 610 q 569 590 555 566 q 541 541 523 514 q 505 486 486 458 q 467 430 447 402 q 427 375 410 351 q 392 327 378 308 q 363 288 354 276 q 336 240 318 204 q 300 167 283 130 q 274 110 266 91 q 257 72 249 52 q 248 50 248 47 q 247 44 245 41 q 245 39 244 38 q 244 36 244 34 q 249 38 259 48 q 269 58 281 70 q 295 85 306 98 q 317 112 321 117 q 338 137 353 157 q 368 177 382 198 q 389 208 396 218 q 402 228 410 237 q 417 246 427 246 q 439 246 439 234 q 439 231 438 229 q 437 227 436 225 q 429 215 414 194 q 400 173 382 148 q 363 123 342 96 q 320 70 300 48 q 279 27 260 14 q 241 0 228 0 q 211 0 206 14 q 203 19 202 26 q 201 33 201 38 q 201 50 204 66 q 206 82 210 97 z m 425 419 q 442 443 464 474 q 485 506 504 536 q 523 567 536 593 q 550 619 552 632 q 551 631 545 623 q 535 611 526 595 q 515 579 506 565 q 498 551 496 546 q 478 514 460 482 q 442 451 425 419 z m 85 53 q 85 44 88 38 q 91 31 99 31 q 117 31 144 60 q 171 89 198 128 q 224 166 246 204 q 267 241 274 259 q 279 271 282 286 q 285 300 285 313 q 285 325 281 334 q 277 344 264 344 q 242 344 216 316 q 191 289 168 252 q 144 214 126 176 q 108 139 101 119 q 96 105 90 86 q 85 68 85 53 z"},"1":{"x_min":0,"x_max":158,"ha":158,"o":"m 34 0 q 26 0 22 4 q 19 9 19 15 q 19 23 25 39 q 31 55 39 72 q 47 89 54 105 q 62 121 67 129 q 104 206 142 281 q 180 356 220 431 q 246 480 273 529 q 300 578 331 626 q 333 628 337 634 q 341 640 346 646 q 348 649 351 652 q 354 655 356 657 q 364 663 368 663 q 376 663 380 658 q 383 652 383 646 q 383 636 380 629 q 378 624 377 620 q 376 617 375 613 q 362 577 346 542 q 330 508 313 474 q 288 420 262 368 q 236 316 208 263 q 185 218 161 175 q 137 132 111 88 q 102 74 93 60 q 84 45 74 31 q 71 27 67 22 q 63 17 58 12 q 53 7 47 4 q 41 0 34 0 z"},"5":{"x_min":0,"x_max":437,"ha":437,"o":"m 334 433 q 348 436 364 438 q 379 440 394 440 q 451 440 482 410 q 512 379 512 325 q 512 302 506 278 q 501 255 493 233 q 476 188 448 146 q 419 103 381 71 q 343 39 296 20 q 249 0 196 0 q 173 0 151 5 q 129 10 112 21 q 95 32 84 50 q 74 68 74 94 q 74 108 77 122 q 80 135 85 148 q 96 178 115 204 q 134 230 160 248 q 185 267 216 278 q 246 289 280 289 q 294 289 294 275 q 294 266 286 260 q 278 253 270 253 q 242 253 218 237 q 194 221 176 197 q 158 173 148 144 q 138 116 138 92 q 138 31 202 31 q 250 31 293 64 q 336 96 369 143 q 402 190 421 244 q 440 297 440 339 q 440 367 428 388 q 417 409 386 409 q 345 409 308 390 q 271 372 239 349 q 235 345 228 345 q 216 345 216 356 q 216 360 218 364 l 367 654 q 372 665 385 665 l 650 665 q 662 665 662 654 q 662 646 656 640 q 649 634 641 634 l 438 634 q 434 627 417 594 q 400 562 381 525 q 366 496 352 470 q 339 444 334 433 z"}}}
